<?xml version="1.0" encoding="UTF-8"?>
<!-- Generator: Adobe Illustrator 28.1.0, SVG Export Plug-In . SVG Version: 6.00 Build 0)  -->
<svg xmlns="http://www.w3.org/2000/svg" xmlns:xlink="http://www.w3.org/1999/xlink" version="1.1" id="Layer_2_00000025421129971609559820000004558366276518858162_" x="0px" y="0px" viewBox="0 0 199.3 100.5" style="enable-background:new 0 0 199.3 100.5;" xml:space="preserve" height="100">
<style type="text/css">
	.st0{fill:url(#SVGID_1_);}
	.st1{fill:url(#SVGID_00000027567652005577067120000001376904651100694950_);}
	.st2{fill:url(#SVGID_00000032647281684067396330000010763584177627295644_);}
	.st3{fill:url(#SVGID_00000005949807536507994260000001282767043355004561_);}
	.st4{fill:url(#SVGID_00000124126312688834080800000012516025734963325840_);}
	.st5{fill:url(#SVGID_00000084525202678539731620000016871039175230848155_);}
	.st6{fill:url(#SVGID_00000145753504383711089500000001786014426821373597_);}
	.st7{fill:url(#SVGID_00000150065014202017069070000005378016695994455961_);}
	.st8{fill:url(#SVGID_00000178191522931101533550000006421170790613906345_);}
	.st9{fill:url(#SVGID_00000031892365534140698420000016186270380376504233_);}
	.st10{fill:url(#SVGID_00000022544244386944864420000016029174374326153381_);}
	.st11{fill:url(#SVGID_00000016045242982964739850000003707944343146508689_);}
	.st12{fill:url(#SVGID_00000020370839743928867480000002666074332560189858_);}
	.st13{fill:url(#SVGID_00000101810736989799167810000007439205763190728615_);}
</style>
<g id="Layer_3">
	
		<linearGradient id="SVGID_1_" gradientUnits="userSpaceOnUse" x1="-306.734" y1="12.472" x2="741.3629" y2="12.472" gradientTransform="matrix(1 0 0 -1 0 102)">
		<stop offset="0.246" style="stop-color:#3C84E1"></stop>
		<stop offset="1" style="stop-color:#32B9A9"></stop>
	</linearGradient>
	<path class="st0" d="M54.7,82.5h1c0.1,0,0.2,0.1,0.2,0.2v13.6c0,0.1-0.1,0.2-0.2,0.2h-1c-0.1,0-0.2-0.1-0.2-0.2v-6.1   c0-0.1,0-0.1-0.1-0.1h-6.4c-0.1,0-0.1,0-0.1,0.1v6.1c0,0.1-0.1,0.2-0.2,0.2h-1c-0.1,0-0.2-0.1-0.2-0.2V82.7c0-0.1,0.1-0.2,0.2-0.2   h1c0.1,0,0.2,0.1,0.2,0.2v6.1c0,0.1,0,0.1,0.1,0.1h6.4c0.1,0,0.1,0,0.1-0.1v-6.1C54.5,82.6,54.6,82.5,54.7,82.5z"></path>
	
		<linearGradient id="SVGID_00000071550451348294303190000001759065612767604903_" gradientUnits="userSpaceOnUse" x1="-306.734" y1="12.582" x2="741.3629" y2="12.582" gradientTransform="matrix(1 0 0 -1 0 102)">
		<stop offset="0.246" style="stop-color:#3C84E1"></stop>
		<stop offset="1" style="stop-color:#32B9A9"></stop>
	</linearGradient>
	<path style="fill:url(#SVGID_00000071550451348294303190000001759065612767604903_);" d="M59.5,84.2c-0.2-0.2-0.3-0.5-0.3-0.8   c0-0.3,0.1-0.6,0.3-0.8s0.5-0.3,0.8-0.3s0.6,0.1,0.8,0.3s0.3,0.5,0.3,0.8c0,0.3-0.1,0.6-0.3,0.8c-0.2,0.2-0.5,0.3-0.8,0.3   S59.8,84.5,59.5,84.2z M59.6,96.3v-9.7c0-0.1,0.1-0.2,0.2-0.2h1c0.1,0,0.2,0.1,0.2,0.2v9.7c0,0.1-0.1,0.2-0.2,0.2h-1   C59.6,96.5,59.6,96.4,59.6,96.3z"></path>
	
		<linearGradient id="SVGID_00000098918307438812047260000001794888140314996629_" gradientUnits="userSpaceOnUse" x1="-306.734" y1="8.621" x2="741.3629" y2="8.621" gradientTransform="matrix(1 0 0 -1 0 102)">
		<stop offset="0.246" style="stop-color:#3C84E1"></stop>
		<stop offset="1" style="stop-color:#32B9A9"></stop>
	</linearGradient>
	<path style="fill:url(#SVGID_00000098918307438812047260000001794888140314996629_);" d="M70.9,86.4h1c0.1,0,0.2,0.1,0.2,0.2v9.6   c0,1.5-0.4,2.6-1.3,3.3s-2,1-3.5,1c-0.3,0-0.5,0-0.7,0c-0.1,0-0.2-0.1-0.2-0.2l0-0.9c0-0.1,0-0.1,0.1-0.2s0.1,0,0.1,0l0.5,0   c1.2,0,2.1-0.2,2.7-0.7c0.6-0.5,0.8-1.3,0.8-2.3v-0.7c0,0,0,0,0-0.1c0,0,0,0-0.1,0c-0.6,0.8-1.5,1.2-2.6,1.2   c-0.9,0-1.6-0.2-2.3-0.7c-0.7-0.5-1.1-1.1-1.3-2c-0.2-0.5-0.2-1.4-0.2-2.4c0-0.6,0-1.1,0-1.5c0-0.4,0.1-0.8,0.2-1.1   c0.2-0.8,0.7-1.4,1.3-1.9c0.6-0.5,1.4-0.7,2.3-0.7c1.2,0,2.1,0.4,2.7,1.2c0,0,0,0,0.1,0c0,0,0,0,0-0.1v-0.8   C70.7,86.5,70.8,86.4,70.9,86.4L70.9,86.4z M70.7,92.7c0-0.3,0-0.7,0-1.3c0-0.7,0-1.1,0-1.4c0-0.2,0-0.4-0.1-0.6   c-0.1-0.6-0.4-1-0.8-1.4c-0.4-0.4-1-0.6-1.6-0.6c-0.6,0-1.2,0.2-1.6,0.5c-0.4,0.4-0.7,0.8-0.9,1.4c-0.1,0.4-0.2,1.1-0.2,2   c0,1,0.1,1.6,0.2,2c0.1,0.6,0.4,1,0.9,1.4c0.4,0.4,1,0.6,1.6,0.6c0.7,0,1.2-0.2,1.6-0.5s0.7-0.8,0.8-1.4   C70.7,93.3,70.7,93,70.7,92.7L70.7,92.7z"></path>
	
		<linearGradient id="SVGID_00000155144398666734173430000013816398637475114430_" gradientUnits="userSpaceOnUse" x1="-306.734" y1="12.471" x2="741.3629" y2="12.471" gradientTransform="matrix(1 0 0 -1 0 102)">
		<stop offset="0.246" style="stop-color:#3C84E1"></stop>
		<stop offset="1" style="stop-color:#32B9A9"></stop>
	</linearGradient>
	<path style="fill:url(#SVGID_00000155144398666734173430000013816398637475114430_);" d="M81.9,87.2c0.6,0.6,0.9,1.5,0.9,2.5v6.6   c0,0.1-0.1,0.2-0.2,0.2h-1c-0.1,0-0.2-0.1-0.2-0.2V90c0-0.7-0.2-1.3-0.7-1.8s-1-0.7-1.7-0.7c-0.7,0-1.3,0.2-1.8,0.7   c-0.5,0.5-0.7,1-0.7,1.8v6.4c0,0.1-0.1,0.2-0.2,0.2h-1c-0.1,0-0.2-0.1-0.2-0.2V82.7c0-0.1,0.1-0.2,0.2-0.2h1c0.1,0,0.2,0.1,0.2,0.2   v4.7c0,0,0,0,0,0.1c0,0,0,0,0,0c0.6-0.8,1.5-1.2,2.7-1.2C80.4,86.3,81.3,86.6,81.9,87.2z"></path>
	
		<linearGradient id="SVGID_00000044139085434393880580000005741594488578984340_" gradientUnits="userSpaceOnUse" x1="-306.734" y1="10.52" x2="741.3629" y2="10.52" gradientTransform="matrix(1 0 0 -1 0 102)">
		<stop offset="0.246" style="stop-color:#3C84E1"></stop>
		<stop offset="1" style="stop-color:#32B9A9"></stop>
	</linearGradient>
	<path style="fill:url(#SVGID_00000044139085434393880580000005741594488578984340_);" d="M93.7,91.2v0.6c0,0.1-0.1,0.2-0.2,0.2H87   c-0.1,0-0.1,0-0.1,0.1c0,0.7,0.1,1.2,0.1,1.4c0.1,0.6,0.5,1.1,0.9,1.4s1.1,0.5,1.8,0.5c0.6,0,1.1-0.1,1.5-0.4   c0.4-0.3,0.8-0.6,1-1.1c0.1-0.1,0.2-0.1,0.3-0.1l0.8,0.5c0.1,0.1,0.1,0.2,0.1,0.3c-0.3,0.6-0.8,1.1-1.5,1.5   c-0.7,0.4-1.4,0.6-2.3,0.6c-0.9,0-1.7-0.2-2.4-0.7c-0.6-0.4-1.1-1.1-1.4-1.8c-0.2-0.6-0.4-1.6-0.4-2.8c0-0.6,0-1,0-1.4   s0.1-0.7,0.2-0.9c0.2-0.9,0.7-1.6,1.4-2.1c0.7-0.5,1.5-0.8,2.5-0.8c1.2,0,2.1,0.3,2.8,0.9c0.7,0.6,1.1,1.5,1.2,2.6   C93.6,90.1,93.7,90.6,93.7,91.2L93.7,91.2z M87.9,88c-0.4,0.3-0.7,0.8-0.8,1.4c-0.1,0.3-0.1,0.7-0.2,1.4c0,0.1,0,0.1,0.1,0.1h5.2   c0.1,0,0.1,0,0.1-0.1c0-0.6-0.1-1-0.1-1.3c-0.1-0.6-0.4-1.1-0.9-1.4s-1-0.5-1.7-0.5C88.9,87.5,88.4,87.7,87.9,88z"></path>
	
		<linearGradient id="SVGID_00000088853044977777430930000004134539750569374899_" gradientUnits="userSpaceOnUse" x1="-306.734" y1="10.5815" x2="741.3629" y2="10.5815" gradientTransform="matrix(1 0 0 -1 0 102)">
		<stop offset="0.246" style="stop-color:#3C84E1"></stop>
		<stop offset="1" style="stop-color:#32B9A9"></stop>
	</linearGradient>
	<path style="fill:url(#SVGID_00000088853044977777430930000004134539750569374899_);" d="M101.7,86.6c0.1,0.1,0.1,0.1,0.1,0.3   l-0.2,1c0,0.1-0.1,0.2-0.3,0.1c-0.2-0.1-0.5-0.1-0.8-0.1l-0.3,0c-0.7,0-1.3,0.3-1.7,0.8c-0.5,0.5-0.7,1.1-0.7,1.9v5.9   c0,0.1-0.1,0.2-0.2,0.2h-1c-0.1,0-0.2-0.1-0.2-0.2v-9.7c0-0.1,0.1-0.2,0.2-0.2h1c0.1,0,0.2,0.1,0.2,0.2v1.2c0,0,0,0.1,0,0.1   s0,0,0.1,0c0.3-0.5,0.6-0.9,1.1-1.1c0.4-0.3,0.9-0.4,1.5-0.4C101,86.3,101.4,86.4,101.7,86.6L101.7,86.6z"></path>
	
		<linearGradient id="SVGID_00000182525583022457834570000008320488120753352581_" gradientUnits="userSpaceOnUse" x1="-306.734" y1="12.463" x2="741.3629" y2="12.463" gradientTransform="matrix(1 0 0 -1 0 102)">
		<stop offset="0.246" style="stop-color:#3C84E1"></stop>
		<stop offset="1" style="stop-color:#32B9A9"></stop>
	</linearGradient>
	<path style="fill:url(#SVGID_00000182525583022457834570000008320488120753352581_);" d="M109.8,96.2c-0.7-0.4-1.3-0.9-1.7-1.6   c-0.4-0.7-0.6-1.4-0.6-2.3v-5.5c0-0.9,0.2-1.6,0.6-2.3c0.4-0.7,0.9-1.2,1.7-1.6c0.7-0.4,1.5-0.6,2.5-0.6s1.8,0.2,2.5,0.5   c0.7,0.4,1.3,0.9,1.7,1.5c0.4,0.7,0.6,1.4,0.6,2.3c0,0.1,0,0.1-0.1,0.2s-0.1,0.1-0.1,0.1l-1,0.1c-0.1,0-0.2-0.1-0.2-0.2v-0.1   c0-0.9-0.3-1.7-0.9-2.3c-0.6-0.6-1.4-0.9-2.4-0.9s-1.8,0.3-2.4,0.9s-0.9,1.3-0.9,2.3v5.6c0,0.9,0.3,1.7,0.9,2.3s1.4,0.9,2.4,0.9   s1.8-0.3,2.4-0.8s0.9-1.3,0.9-2.3v0c0-0.1,0.1-0.2,0.2-0.2l1,0.1c0.1,0,0.2,0.1,0.2,0.2c0,0.9-0.2,1.6-0.6,2.3   c-0.4,0.7-0.9,1.2-1.7,1.5c-0.7,0.4-1.5,0.5-2.5,0.5S110.5,96.5,109.8,96.2L109.8,96.2z"></path>
	
		<linearGradient id="SVGID_00000027571084181412263800000003762076668738784397_" gradientUnits="userSpaceOnUse" x1="-306.734" y1="12.4705" x2="741.3629" y2="12.4705" gradientTransform="matrix(1 0 0 -1 0 102)">
		<stop offset="0.246" style="stop-color:#3C84E1"></stop>
		<stop offset="1" style="stop-color:#32B9A9"></stop>
	</linearGradient>
	<path style="fill:url(#SVGID_00000027571084181412263800000003762076668738784397_);" d="M120.6,95.7c-0.9-0.7-1.3-1.6-1.3-2.7   v-0.6c0-0.1,0.1-0.2,0.2-0.2h1c0.1,0,0.2,0.1,0.2,0.2v0.5c0,0.8,0.3,1.4,1,1.9c0.6,0.5,1.5,0.7,2.7,0.7c1,0,1.8-0.2,2.3-0.6   s0.8-1,0.8-1.7c0-0.5-0.1-0.9-0.4-1.2c-0.2-0.3-0.6-0.6-1.1-0.9s-1.2-0.6-2.2-1c-1-0.4-1.8-0.8-2.3-1.1s-1-0.7-1.3-1.2   c-0.3-0.5-0.5-1.1-0.5-1.8c0-1.1,0.4-2,1.2-2.6s1.8-0.9,3.2-0.9c1.5,0,2.6,0.3,3.5,1c0.9,0.7,1.3,1.6,1.3,2.8v0.4   c0,0.1-0.1,0.2-0.2,0.2h-1c-0.1,0-0.2-0.1-0.2-0.2v-0.4c0-0.8-0.3-1.4-0.9-1.9c-0.6-0.5-1.4-0.7-2.5-0.7c-0.9,0-1.7,0.2-2.2,0.6   s-0.8,0.9-0.8,1.7c0,0.5,0.1,0.9,0.4,1.2s0.6,0.6,1.1,0.8s1.2,0.5,2.1,0.9c1,0.4,1.8,0.8,2.3,1.1c0.6,0.3,1.1,0.8,1.4,1.3   s0.6,1.1,0.6,1.8c0,1.1-0.4,2-1.2,2.7c-0.8,0.7-2,1-3.4,1C122.7,96.7,121.5,96.3,120.6,95.7L120.6,95.7z"></path>
	
		<linearGradient id="SVGID_00000033360682064786481700000010326850537158915253_" gradientUnits="userSpaceOnUse" x1="-306.734" y1="12.472" x2="741.3629" y2="12.472" gradientTransform="matrix(1 0 0 -1 0 102)">
		<stop offset="0.246" style="stop-color:#3C84E1"></stop>
		<stop offset="1" style="stop-color:#32B9A9"></stop>
	</linearGradient>
	<path style="fill:url(#SVGID_00000033360682064786481700000010326850537158915253_);" d="M139.9,96.4l-0.8-2.5c0,0,0-0.1-0.1-0.1   h-6c0,0-0.1,0-0.1,0.1l-0.8,2.5c0,0.1-0.1,0.2-0.2,0.2h-1.1c-0.1,0-0.2-0.1-0.2-0.2l4.4-13.6c0-0.1,0.1-0.2,0.2-0.2h1.4   c0.1,0,0.2,0.1,0.2,0.2l4.4,13.6l0,0.1c0,0.1-0.1,0.1-0.2,0.1h-1.1C140,96.5,140,96.5,139.9,96.4L139.9,96.4z M133.4,92.6   C133.4,92.6,133.4,92.6,133.4,92.6l5.2,0c0,0,0.1,0,0.1,0c0,0,0,0,0-0.1l-2.6-8.2c0,0,0,0-0.1,0c0,0,0,0-0.1,0L133.4,92.6   C133.4,92.6,133.4,92.6,133.4,92.6z"></path>
	
		<linearGradient id="SVGID_00000072990113283080321640000012890882321768247695_" gradientUnits="userSpaceOnUse" x1="-306.734" y1="12.4715" x2="741.3629" y2="12.4715" gradientTransform="matrix(1 0 0 -1 0 102)">
		<stop offset="0.246" style="stop-color:#3C84E1"></stop>
		<stop offset="1" style="stop-color:#32B9A9"></stop>
	</linearGradient>
	<path style="fill:url(#SVGID_00000072990113283080321640000012890882321768247695_);" d="M151.3,82.7v0.9c0,0.1-0.1,0.2-0.2,0.2   h-3.9c-0.1,0-0.1,0-0.1,0.1v12.5c0,0.1-0.1,0.2-0.2,0.2h-1c-0.1,0-0.2-0.1-0.2-0.2V83.9c0-0.1,0-0.1-0.1-0.1h-3.8   c-0.1,0-0.2-0.1-0.2-0.2v-0.9c0-0.1,0.1-0.2,0.2-0.2h9.3C151.3,82.5,151.3,82.6,151.3,82.7z"></path>
	
		<linearGradient id="SVGID_00000078045476973824125670000008760975946832453033_" gradientUnits="userSpaceOnUse" x1="25.2055" y1="33.426" x2="25.2055" y2="81.818" gradientTransform="matrix(1 0 0 -1 0 102)">
		<stop offset="0" style="stop-color:#3A8DD7;stop-opacity:0"></stop>
		<stop offset="0.72" style="stop-color:#3A8DD7"></stop>
	</linearGradient>
	<path style="fill:url(#SVGID_00000078045476973824125670000008760975946832453033_);" d="M36.4,31L25.8,20.4   c-0.1-0.1-0.2-0.1-0.3-0.2c-0.2-0.1-0.4-0.1-0.6,0c-0.1,0-0.2,0.1-0.3,0.2L14,31c-0.3,0.3-0.3,0.8,0,1.1c0.3,0.3,0.8,0.3,1.1,0   l9.3-9.3v44.9c0,0.4,0.4,0.8,0.8,0.8s0.8-0.4,0.8-0.8V22.9l9.3,9.3c0.2,0.2,0.4,0.2,0.6,0.2s0.4-0.1,0.6-0.2   C36.7,31.8,36.7,31.3,36.4,31L36.4,31z"></path>
	
		<linearGradient id="SVGID_00000008859209778388147020000009209077783027353257_" gradientUnits="userSpaceOnUse" x1="-306.734" y1="70.1385" x2="741.3629" y2="70.1385" gradientTransform="matrix(1 0 0 -1 0 102)">
		<stop offset="0.246" style="stop-color:#3C84E1"></stop>
		<stop offset="1" style="stop-color:#32B9A9"></stop>
	</linearGradient>
	<path style="fill:url(#SVGID_00000008859209778388147020000009209077783027353257_);" d="M58.2,54.5c0,0.1,0.1,0.2,0.3,0.2h25.7   c0.3,0,0.6,0.1,0.8,0.3c0.2,0.2,0.3,0.5,0.3,0.8v6.8c0,0.3-0.1,0.6-0.3,0.8c-0.2,0.2-0.5,0.3-0.8,0.3H45.5c-0.3,0-0.6-0.1-0.8-0.3   c-0.2-0.2-0.3-0.5-0.3-0.8v-6.5c0-0.5,0.2-1,0.5-1.3C49.5,50,54.8,44,60.8,36.9l4.2-5c5.5-6.4,8.3-11.3,8.3-14.6   c0-2.5-0.9-4.5-2.6-6c-1.7-1.6-4-2.3-6.7-2.3s-5,0.8-6.7,2.3c-1.7,1.6-2.6,3.6-2.6,6.2v2.3c0,0.3-0.1,0.6-0.3,0.8   c-0.2,0.2-0.5,0.3-0.8,0.3h-8.4c-0.3,0-0.6-0.1-0.8-0.3c-0.2-0.2-0.3-0.5-0.3-0.8V16c0.1-3.2,1-6.1,2.8-8.5C48.6,5.2,51,3.3,54,2   c3-1.3,6.3-2,9.9-2c4,0,7.5,0.8,10.5,2.2c3,1.5,5.3,3.6,6.9,6.2c1.6,2.6,2.4,5.5,2.4,8.8c0,4.9-2.6,10.6-7.8,17   c-2.9,3.6-7.6,9-14.2,16.2l-3.4,3.8C58.2,54.3,58.2,54.4,58.2,54.5L58.2,54.5z"></path>
	
		<linearGradient id="SVGID_00000008863293951162925840000002708883782265788325_" gradientUnits="userSpaceOnUse" x1="-306.734" y1="69.6455" x2="741.3629" y2="69.6455" gradientTransform="matrix(1 0 0 -1 0 102)">
		<stop offset="0.246" style="stop-color:#3C84E1"></stop>
		<stop offset="1" style="stop-color:#32B9A9"></stop>
	</linearGradient>
	<path style="fill:url(#SVGID_00000008863293951162925840000002708883782265788325_);" d="M100,59.4c-3.7-3.6-5.5-8.4-5.5-14.4V19.5   c0-6,1.8-10.8,5.5-14.3s8.7-5.3,15-5.3s11.3,1.8,15.1,5.3c3.7,3.5,5.6,8.3,5.6,14.3v25.4c0,6.1-1.9,10.9-5.6,14.4   c-3.7,3.6-8.8,5.4-15.1,5.4S103.6,62.9,100,59.4z M122.4,52.9c1.9-1.8,2.8-4.3,2.8-7.4V19.2c0-3.1-0.9-5.6-2.8-7.4   c-1.9-1.8-4.4-2.7-7.5-2.7c-3.1,0-5.5,0.9-7.3,2.7c-1.8,1.8-2.7,4.3-2.7,7.4v26.3c0,3.1,0.9,5.6,2.7,7.4c1.8,1.8,4.3,2.7,7.3,2.7   C118.1,55.6,120.5,54.7,122.4,52.9z"></path>
	
		<linearGradient id="SVGID_00000110452135629873937770000002894535998332905098_" gradientUnits="userSpaceOnUse" x1="-306.734" y1="59.2795" x2="741.3629" y2="59.2795" gradientTransform="matrix(1 0 0 -1 0 102)">
		<stop offset="0.246" style="stop-color:#3C84E1"></stop>
		<stop offset="1" style="stop-color:#32B9A9"></stop>
	</linearGradient>
	<path style="fill:url(#SVGID_00000110452135629873937770000002894535998332905098_);" d="M151.4,36.1c-1.2-0.7-2.2-1.7-2.9-2.9   c-0.7-1.2-1.1-2.6-1.1-4s0.4-2.8,1.1-4s1.7-2.2,2.9-2.9c1.2-0.7,2.6-1.1,4.1-1.1c1.4,0,2.8,0.4,4,1.1c1.2,0.7,2.2,1.7,2.9,2.9   c0.7,1.2,1.1,2.5,1.1,4s-0.4,2.8-1.1,4c-0.7,1.2-1.7,2.2-2.9,2.9c-1.2,0.7-2.6,1.1-4,1.1C154,37.1,152.6,36.8,151.4,36.1z    M160.1,33.7c1.3-1.3,1.9-2.8,1.9-4.6s-0.6-3.3-1.9-4.6c-1.3-1.3-2.8-1.9-4.6-1.9c-1.8,0-3.4,0.6-4.6,1.9c-1.3,1.3-1.9,2.8-1.9,4.6   c0,1.8,0.6,3.4,1.9,4.6c1.3,1.3,2.8,1.9,4.6,1.9C157.3,35.6,158.8,35,160.1,33.7z M154.3,63.5c-0.1-0.1-0.1-0.3,0-0.5L177,22.1   c0.2-0.3,0.4-0.4,0.7-0.4h0.3c0.2,0,0.4,0.1,0.5,0.2c0.1,0.1,0.1,0.3-0.1,0.5l-22.7,40.9c-0.1,0.3-0.4,0.4-0.7,0.4h-0.3   C154.5,63.7,154.4,63.7,154.3,63.5z M173.4,63.2c-1.2-0.7-2.2-1.7-2.9-2.9c-0.7-1.2-1.1-2.6-1.1-4s0.4-2.8,1.1-4s1.7-2.2,2.9-2.9   c1.2-0.7,2.6-1.1,4.1-1.1c1.4,0,2.8,0.4,4,1.1c1.2,0.7,2.2,1.7,2.9,2.9c0.7,1.2,1.1,2.6,1.1,4s-0.4,2.8-1.1,4s-1.7,2.2-2.9,2.9   c-1.2,0.7-2.6,1.1-4,1.1C176,64.3,174.6,64,173.4,63.2z M182,60.9c1.3-1.3,1.9-2.8,1.9-4.6s-0.6-3.3-1.9-4.6   c-1.3-1.3-2.8-1.9-4.5-1.9c-1.8,0-3.4,0.6-4.6,1.9s-1.9,2.8-1.9,4.6c0,1.8,0.6,3.4,1.9,4.7s2.8,1.9,4.6,1.9   C179.2,62.8,180.8,62.2,182,60.9z"></path>
</g>
</svg>
