<?xml version="1.0" encoding="UTF-8"?>
<svg xmlns="http://www.w3.org/2000/svg" xmlns:xlink="http://www.w3.org/1999/xlink" id="Layer_2" viewBox="0 0 200.657 100.509" height="100">
  <defs>
    <style>.cls-1{fill:url(#linear-gradient);}.cls-1,.cls-2,.cls-3,.cls-4,.cls-5,.cls-6,.cls-7,.cls-8,.cls-9,.cls-10,.cls-11,.cls-12,.cls-13,.cls-14,.cls-15,.cls-16,.cls-17,.cls-18,.cls-19,.cls-20,.cls-21,.cls-22{stroke-width:0px;}.cls-2{fill:url(#linear-gradient-11);}.cls-3{fill:url(#linear-gradient-12);}.cls-4{fill:url(#linear-gradient-13);}.cls-5{fill:url(#linear-gradient-10);}.cls-6{fill:url(#linear-gradient-17);}.cls-7{fill:url(#linear-gradient-16);}.cls-8{fill:url(#linear-gradient-19);}.cls-9{fill:url(#linear-gradient-15);}.cls-10{fill:url(#linear-gradient-21);}.cls-11{fill:url(#linear-gradient-18);}.cls-12{fill:url(#linear-gradient-14);}.cls-13{fill:url(#linear-gradient-22);}.cls-14{fill:url(#linear-gradient-20);}.cls-15{fill:url(#linear-gradient-4);}.cls-16{fill:url(#linear-gradient-2);}.cls-17{fill:url(#linear-gradient-3);}.cls-18{fill:url(#linear-gradient-8);}.cls-19{fill:url(#linear-gradient-9);}.cls-20{fill:url(#linear-gradient-7);}.cls-21{fill:url(#linear-gradient-5);}.cls-22{fill:url(#linear-gradient-6);}</style>
    <linearGradient id="linear-gradient" x1="-21.033" y1="89.528" x2="1027.064" y2="89.528" gradientUnits="userSpaceOnUse">
      <stop offset=".246" stop-color="#3c84e1"></stop>
      <stop offset="1" stop-color="#32b9a9"></stop>
    </linearGradient>
    <linearGradient id="linear-gradient-2" y1="89.418" y2="89.418" xlink:href="#linear-gradient"></linearGradient>
    <linearGradient id="linear-gradient-3" y1="93.379" y2="93.379" xlink:href="#linear-gradient"></linearGradient>
    <linearGradient id="linear-gradient-4" y1="91.479" y2="91.479" xlink:href="#linear-gradient"></linearGradient>
    <linearGradient id="linear-gradient-5" y1="91.418" y2="91.418" xlink:href="#linear-gradient"></linearGradient>
    <linearGradient id="linear-gradient-6" y1="91.418" y2="91.418" xlink:href="#linear-gradient"></linearGradient>
    <linearGradient id="linear-gradient-7" y1="91.479" y2="91.479" xlink:href="#linear-gradient"></linearGradient>
    <linearGradient id="linear-gradient-8" y1="91.468" y2="91.468" xlink:href="#linear-gradient"></linearGradient>
    <linearGradient id="linear-gradient-9" y1="91.479" y2="91.479" xlink:href="#linear-gradient"></linearGradient>
    <linearGradient id="linear-gradient-10" y1="91.398" y2="91.398" xlink:href="#linear-gradient"></linearGradient>
    <linearGradient id="linear-gradient-11" y1="91.539" y2="91.539" xlink:href="#linear-gradient"></linearGradient>
    <linearGradient id="linear-gradient-12" y1="91.479" y2="91.479" xlink:href="#linear-gradient"></linearGradient>
    <linearGradient id="linear-gradient-13" y1="93.329" y2="93.329" xlink:href="#linear-gradient"></linearGradient>
    <linearGradient id="linear-gradient-14" y1="91.479" y2="91.479" xlink:href="#linear-gradient"></linearGradient>
    <linearGradient id="linear-gradient-15" y1="91.418" y2="91.418" xlink:href="#linear-gradient"></linearGradient>
    <linearGradient id="linear-gradient-16" y1="91.479" y2="91.479" xlink:href="#linear-gradient"></linearGradient>
    <linearGradient id="linear-gradient-17" y1="91.469" y2="91.469" xlink:href="#linear-gradient"></linearGradient>
    <linearGradient id="linear-gradient-18" y1="89.608" y2="89.608" xlink:href="#linear-gradient"></linearGradient>
    <linearGradient id="linear-gradient-19" x1="26.953" y1="68.576" x2="26.953" y2="20.183" gradientUnits="userSpaceOnUse">
      <stop offset="0" stop-color="#3c84e1" stop-opacity="0"></stop>
      <stop offset=".72" stop-color="#3c84e1"></stop>
    </linearGradient>
    <linearGradient id="linear-gradient-20" y1="31.86" y2="31.86" xlink:href="#linear-gradient"></linearGradient>
    <linearGradient id="linear-gradient-21" y1="32.536" y2="32.536" xlink:href="#linear-gradient"></linearGradient>
    <linearGradient id="linear-gradient-22" y1="42.72" y2="42.72" xlink:href="#linear-gradient"></linearGradient>
  </defs>
  <g id="Layer_3">
    <path class="cls-1" d="M8.16,82.528h1.02c.133,0,.2.067.2.2v13.6c0,.134-.066.2-.2.2h-1.02c-.133,0-.2-.066-.2-.2v-6.14c0-.053-.027-.08-.08-.08H1.5c-.053,0-.08.027-.08.08v6.14c0,.134-.067.2-.2.2H.2c-.133,0-.2-.066-.2-.2v-13.6c0-.133.067-.2.2-.2h1.02c.133,0,.2.067.2.2v6.06c0,.054.027.08.08.08h6.38c.053,0,.08-.026.08-.08v-6.06c0-.133.067-.2.2-.2Z"></path>
    <path class="cls-16" d="M12.96,84.249c-.213-.214-.32-.48-.32-.801,0-.333.106-.603.32-.81s.48-.311.8-.311.586.104.8.311.32.477.32.81c0,.32-.107.587-.32.801-.213.213-.48.319-.8.319s-.587-.106-.8-.319ZM13,96.309v-9.72c0-.134.067-.2.2-.2h1.02c.133,0,.2.066.2.2v9.72c0,.134-.067.2-.2.2h-1.02c-.133,0-.2-.066-.2-.2Z"></path>
    <path class="cls-17" d="M24.34,86.408h1.02c.133,0,.2.067.2.2v9.58c0,1.493-.43,2.587-1.29,3.28-.86.693-2.043,1.04-3.55,1.04-.307,0-.54-.007-.7-.021-.134-.013-.2-.087-.2-.22l.04-.92c0-.067.02-.117.06-.15s.086-.043.14-.029l.54.02c1.24,0,2.14-.243,2.7-.729.56-.487.84-1.257.84-2.311v-.74c0-.026-.01-.043-.03-.05s-.043.004-.07.03c-.614.8-1.487,1.2-2.62,1.2-.867,0-1.637-.233-2.31-.7-.673-.467-1.124-1.127-1.35-1.98-.16-.546-.24-1.359-.24-2.439,0-.587.016-1.08.05-1.48.033-.399.103-.76.21-1.08.24-.8.673-1.442,1.3-1.93.627-.486,1.38-.729,2.26-.729,1.187,0,2.086.393,2.7,1.18.026.026.05.033.07.02.02-.013.03-.033.03-.06v-.78c0-.133.067-.2.2-.2ZM24.12,92.729c.013-.293.02-.72.02-1.28,0-.68-.007-1.137-.02-1.37-.013-.232-.047-.449-.1-.649-.107-.561-.37-1.023-.79-1.391-.42-.366-.95-.55-1.59-.55-.627,0-1.157.181-1.59.54-.434.36-.737.827-.91,1.4-.133.427-.2,1.094-.2,2,0,.974.066,1.646.2,2.02.133.561.423,1.023.87,1.391.447.366.99.55,1.63.55.653,0,1.19-.18,1.61-.54.42-.36.683-.82.79-1.38.04-.2.066-.446.08-.74Z"></path>
    <path class="cls-1" d="M35.35,87.209c.633.626.95,1.467.95,2.52v6.6c0,.134-.067.2-.2.2h-1.02c-.133,0-.2-.066-.2-.2v-6.319c0-.733-.223-1.333-.67-1.8s-1.023-.7-1.73-.7c-.733,0-1.327.227-1.78.68-.454.453-.68,1.047-.68,1.78v6.359c0,.134-.067.2-.2.2h-1.02c-.133,0-.2-.066-.2-.2v-13.6c0-.133.066-.2.2-.2h1.02c.133,0,.2.067.2.2v4.74c0,.026.01.047.03.06.02.014.037.007.05-.02.586-.827,1.486-1.24,2.7-1.24,1.067,0,1.917.313,2.55.94Z"></path>
    <path class="cls-15" d="M47.08,91.169v.64c0,.134-.067.2-.2.2h-6.46c-.053,0-.08.026-.08.08.026.733.066,1.207.12,1.42.147.6.46,1.073.94,1.42.48.347,1.093.52,1.84.52.56,0,1.053-.126,1.48-.38.426-.253.76-.613,1-1.08.08-.12.173-.146.28-.08l.78.46c.106.067.133.16.08.28-.333.64-.833,1.144-1.5,1.51-.667.367-1.434.551-2.3.551-.947-.014-1.74-.24-2.38-.681-.64-.439-1.1-1.053-1.38-1.84-.24-.64-.36-1.56-.36-2.76,0-.561.01-1.017.03-1.37s.07-.67.15-.95c.227-.866.683-1.56,1.37-2.08.687-.52,1.517-.779,2.49-.779,1.213,0,2.146.307,2.8.92.653.613,1.06,1.479,1.22,2.6.053.373.08.84.08,1.4ZM41.35,87.999c-.434.34-.717.797-.85,1.369-.08.28-.133.733-.16,1.36,0,.054.026.08.08.08h5.18c.053,0,.08-.026.08-.08-.027-.6-.067-1.026-.12-1.28-.147-.6-.443-1.076-.89-1.43s-1.01-.53-1.69-.53c-.653,0-1.197.17-1.63.511Z"></path>
    <path class="cls-21" d="M55.119,86.568c.107.054.147.141.12.26l-.22.98c-.04.134-.127.174-.26.12-.227-.094-.487-.141-.78-.141l-.26.021c-.693.026-1.267.283-1.72.77-.454.487-.68,1.104-.68,1.851v5.899c0,.134-.067.2-.2.2h-1.02c-.133,0-.2-.066-.2-.2v-9.72c0-.133.066-.2.2-.2h1.02c.133,0,.2.067.2.2v1.22c0,.04.01.063.03.07s.037-.003.05-.03c.28-.493.636-.876,1.07-1.149.433-.273.937-.41,1.51-.41.44,0,.82.087,1.14.26Z"></path>
    <path class="cls-22" d="M66.399,86.568c.107.054.147.141.12.26l-.22.98c-.04.134-.127.174-.26.12-.227-.094-.487-.141-.78-.141l-.26.021c-.693.026-1.267.283-1.72.77-.454.487-.68,1.104-.68,1.851v5.899c0,.134-.067.2-.2.2h-1.02c-.133,0-.2-.066-.2-.2v-9.72c0-.133.066-.2.2-.2h1.02c.133,0,.2.067.2.2v1.22c0,.04.01.063.03.07s.037-.003.05-.03c.28-.493.636-.876,1.07-1.149.433-.273.937-.41,1.51-.41.44,0,.82.087,1.14.26Z"></path>
    <path class="cls-20" d="M76.199,91.169v.64c0,.134-.067.2-.2.2h-6.46c-.053,0-.08.026-.08.08.026.733.066,1.207.12,1.42.147.6.46,1.073.94,1.42.48.347,1.093.52,1.84.52.56,0,1.053-.126,1.48-.38.426-.253.76-.613,1-1.08.08-.12.173-.146.28-.08l.78.46c.106.067.133.16.08.28-.333.64-.833,1.144-1.5,1.51-.667.367-1.434.551-2.3.551-.947-.014-1.74-.24-2.38-.681-.64-.439-1.1-1.053-1.38-1.84-.24-.64-.36-1.56-.36-2.76,0-.561.01-1.017.03-1.37s.07-.67.15-.95c.227-.866.683-1.56,1.37-2.08.687-.52,1.517-.779,2.49-.779,1.213,0,2.146.307,2.8.92.653.613,1.06,1.479,1.22,2.6.053.373.08.84.08,1.4ZM70.469,87.999c-.434.34-.717.797-.85,1.369-.08.28-.133.733-.16,1.36,0,.054.026.08.08.08h5.18c.053,0,.08-.026.08-.08-.027-.6-.067-1.026-.12-1.28-.147-.6-.443-1.076-.89-1.43s-1.01-.53-1.69-.53c-.653,0-1.197.17-1.63.511Z"></path>
    <path class="cls-18" d="M81.099,96.368l-3.28-9.739-.02-.08c0-.094.06-.141.18-.141h1.14c.12,0,.2.054.24.16l2.5,7.84c.013.027.033.04.06.04s.047-.013.06-.04l2.5-7.84c.04-.106.12-.16.24-.16l1.14.021c.146,0,.2.073.16.22l-3.28,9.72c-.04.107-.12.16-.24.16h-1.16c-.12,0-.2-.053-.24-.16Z"></path>
    <path class="cls-19" d="M95.759,91.169v.64c0,.134-.067.2-.2.2h-6.46c-.053,0-.08.026-.08.08.026.733.066,1.207.12,1.42.147.6.46,1.073.94,1.42.48.347,1.093.52,1.84.52.56,0,1.053-.126,1.48-.38.426-.253.76-.613,1-1.08.08-.12.173-.146.28-.08l.78.46c.106.067.133.16.08.28-.333.64-.833,1.144-1.5,1.51-.667.367-1.434.551-2.3.551-.947-.014-1.74-.24-2.38-.681-.64-.439-1.1-1.053-1.38-1.84-.24-.64-.36-1.56-.36-2.76,0-.561.01-1.017.03-1.37s.07-.67.15-.95c.227-.866.683-1.56,1.37-2.08.687-.52,1.517-.779,2.49-.779,1.213,0,2.146.307,2.8.92.653.613,1.06,1.479,1.22,2.6.053.373.08.84.08,1.4ZM90.029,87.999c-.434.34-.717.797-.85,1.369-.08.28-.133.733-.16,1.36,0,.054.026.08.08.08h5.18c.053,0,.08-.026.08-.08-.027-.6-.067-1.026-.12-1.28-.147-.6-.443-1.076-.89-1.43s-1.01-.53-1.69-.53c-.653,0-1.197.17-1.63.511Z"></path>
    <path class="cls-5" d="M105.329,87.209c.633.626.95,1.467.95,2.52v6.6c0,.134-.067.2-.2.2h-1.02c-.133,0-.2-.066-.2-.2v-6.319c0-.733-.223-1.333-.67-1.8s-1.023-.7-1.73-.7c-.733,0-1.327.227-1.78.68-.454.453-.68,1.047-.68,1.78v6.359c0,.134-.067.2-.2.2h-1.02c-.133,0-.2-.066-.2-.2v-9.72c0-.133.066-.2.2-.2h1.02c.133,0,.2.067.2.2v.86c0,.026.01.047.03.06.02.014.037.007.05-.02.586-.827,1.486-1.24,2.7-1.24,1.067,0,1.917.313,2.55.94Z"></path>
    <path class="cls-2" d="M115.678,86.408h1.02c.133,0,.2.067.2.2v9.72c0,.134-.067.2-.2.2h-1.02c-.133,0-.2-.066-.2-.2v-.859c0-.026-.014-.047-.04-.061-.027-.013-.047-.006-.06.021-.56.827-1.447,1.24-2.66,1.24-.64,0-1.23-.131-1.77-.391s-.967-.637-1.28-1.13c-.313-.493-.47-1.087-.47-1.78v-6.76c0-.133.066-.2.2-.2h1.02c.133,0,.2.067.2.2v6.34c0,.761.213,1.363.64,1.811.427.446,1.006.67,1.74.67.76,0,1.363-.227,1.81-.68s.67-1.054.67-1.801v-6.34c0-.133.066-.2.2-.2Z"></path>
    <path class="cls-3" d="M127.918,91.169v.64c0,.134-.067.2-.2.2h-6.46c-.053,0-.08.026-.08.08.026.733.066,1.207.12,1.42.147.6.46,1.073.94,1.42.48.347,1.093.52,1.84.52.56,0,1.053-.126,1.48-.38.426-.253.76-.613,1-1.08.08-.12.173-.146.28-.08l.78.46c.106.067.133.16.08.28-.333.64-.833,1.144-1.5,1.51-.667.367-1.434.551-2.3.551-.947-.014-1.74-.24-2.38-.681-.64-.439-1.1-1.053-1.38-1.84-.24-.64-.36-1.56-.36-2.76,0-.561.01-1.017.03-1.37s.07-.67.15-.95c.227-.866.683-1.56,1.37-2.08.687-.52,1.517-.779,2.49-.779,1.213,0,2.146.307,2.8.92.653.613,1.06,1.479,1.22,2.6.053.373.08.84.08,1.4ZM122.188,87.999c-.434.34-.717.797-.85,1.369-.08.28-.133.733-.16,1.36,0,.054.026.08.08.08h5.18c.053,0,.08-.026.08-.08-.027-.6-.067-1.026-.12-1.28-.147-.6-.443-1.076-.89-1.43s-1.01-.53-1.69-.53c-.653,0-1.197.17-1.63.511Z"></path>
    <path class="cls-4" d="M142.897,91.469c0,1.066-.086,1.894-.26,2.479-.24.854-.677,1.523-1.31,2.011-.633.486-1.43.729-2.39.729-.52,0-1-.104-1.44-.31-.44-.207-.807-.504-1.1-.891-.027-.026-.05-.036-.07-.029s-.03.023-.03.05v4.7c0,.133-.067.199-.2.199h-1.02c-.133,0-.2-.066-.2-.199v-13.601c0-.133.066-.2.2-.2h1.02c.133,0,.2.067.2.2v.84c0,.027.01.044.03.051s.043-.004.07-.03c.293-.387.657-.687,1.09-.9.433-.213.917-.319,1.45-.319.933,0,1.717.239,2.35.72.633.479,1.07,1.133,1.31,1.96.2.64.3,1.486.3,2.54ZM141.348,92.999c.073-.367.11-.877.11-1.53,0-.627-.027-1.117-.08-1.47-.054-.354-.147-.671-.28-.95-.16-.48-.443-.86-.85-1.141-.407-.279-.89-.42-1.45-.42-.534,0-.98.141-1.34.42-.36.28-.626.653-.8,1.12-.12.268-.207.58-.26.94-.053.359-.08.859-.08,1.5s.026,1.144.08,1.51c.053.367.147.69.28.97.16.454.423.817.79,1.09.367.273.803.41,1.31.41.533,0,.997-.133,1.39-.399.394-.267.677-.62.85-1.061.146-.293.257-.623.33-.989Z"></path>
    <path class="cls-12" d="M153.478,91.169v.64c0,.134-.067.2-.2.2h-6.46c-.053,0-.08.026-.08.08.026.733.066,1.207.12,1.42.147.6.46,1.073.94,1.42.48.347,1.093.52,1.84.52.56,0,1.053-.126,1.48-.38.426-.253.76-.613,1-1.08.08-.12.173-.146.28-.08l.78.46c.106.067.133.16.08.28-.333.64-.833,1.144-1.5,1.51-.667.367-1.434.551-2.3.551-.947-.014-1.74-.24-2.38-.681-.64-.439-1.1-1.053-1.38-1.84-.24-.64-.36-1.56-.36-2.76,0-.561.01-1.017.03-1.37s.07-.67.15-.95c.227-.866.683-1.56,1.37-2.08.687-.52,1.517-.779,2.49-.779,1.213,0,2.146.307,2.8.92.653.613,1.06,1.479,1.22,2.6.053.373.08.84.08,1.4ZM147.748,87.999c-.434.34-.717.797-.85,1.369-.08.28-.133.733-.16,1.36,0,.054.026.08.08.08h5.18c.053,0,.08-.026.08-.08-.027-.6-.067-1.026-.12-1.28-.147-.6-.443-1.076-.89-1.43s-1.01-.53-1.69-.53c-.653,0-1.197.17-1.63.511Z"></path>
    <path class="cls-9" d="M161.517,86.568c.107.054.147.141.12.26l-.22.98c-.04.134-.127.174-.26.12-.227-.094-.487-.141-.78-.141l-.26.021c-.693.026-1.267.283-1.72.77-.454.487-.68,1.104-.68,1.851v5.899c0,.134-.067.2-.2.2h-1.02c-.133,0-.2-.066-.2-.2v-9.72c0-.133.066-.2.2-.2h1.02c.133,0,.2.067.2.2v1.22c0,.04.01.063.03.07s.037-.003.05-.03c.28-.493.636-.876,1.07-1.149.433-.273.937-.41,1.51-.41.44,0,.82.087,1.14.26Z"></path>
    <path class="cls-1" d="M167.577,96.328v-13.6c0-.133.066-.2.2-.2h1.02c.133,0,.2.067.2.2v13.6c0,.134-.067.2-.2.2h-1.02c-.133,0-.2-.066-.2-.2Z"></path>
    <path class="cls-7" d="M180.017,91.169v.64c0,.134-.067.2-.2.2h-6.46c-.053,0-.08.026-.08.08.026.733.066,1.207.12,1.42.147.6.46,1.073.94,1.42.48.347,1.093.52,1.84.52.56,0,1.053-.126,1.48-.38.426-.253.76-.613,1-1.08.08-.12.173-.146.28-.08l.78.46c.106.067.133.16.08.28-.333.64-.833,1.144-1.5,1.51-.667.367-1.434.551-2.3.551-.947-.014-1.74-.24-2.38-.681-.64-.439-1.1-1.053-1.38-1.84-.24-.64-.36-1.56-.36-2.76,0-.561.01-1.017.03-1.37s.07-.67.15-.95c.227-.866.683-1.56,1.37-2.08.687-.52,1.517-.779,2.49-.779,1.213,0,2.146.307,2.8.92.653.613,1.06,1.479,1.22,2.6.053.373.08.84.08,1.4ZM174.287,87.999c-.434.34-.717.797-.85,1.369-.08.28-.133.733-.16,1.36,0,.054.026.08.08.08h5.18c.053,0,.08-.026.08-.08-.027-.6-.067-1.026-.12-1.28-.147-.6-.443-1.076-.89-1.43s-1.01-.53-1.69-.53c-.653,0-1.197.17-1.63.511Z"></path>
    <path class="cls-6" d="M189.017,87.169c.653.613.98,1.427.98,2.439v6.72c0,.134-.067.2-.2.2h-1.02c-.134,0-.2-.066-.2-.2v-.819c0-.026-.01-.047-.03-.061-.02-.013-.043-.006-.07.021-.333.399-.767.703-1.3.91-.534.206-1.127.31-1.78.31-.947,0-1.74-.24-2.38-.72-.64-.48-.96-1.213-.96-2.2,0-1,.363-1.79,1.09-2.37s1.737-.87,3.03-.87h2.32c.053,0,.08-.026.08-.08v-.76c0-.68-.19-1.217-.57-1.61-.38-.393-.97-.59-1.77-.59-.64,0-1.16.124-1.56.37-.4.247-.647.59-.74,1.03-.04.134-.12.193-.24.18l-1.08-.14c-.147-.026-.207-.08-.18-.16.107-.746.507-1.354,1.2-1.82.693-.466,1.56-.699,2.6-.699,1.2,0,2.126.307,2.78.92ZM187.717,94.879c.573-.394.86-.924.86-1.591v-1.56c0-.053-.027-.08-.08-.08h-2.1c-.88,0-1.586.18-2.12.54-.534.36-.8.86-.8,1.5,0,.587.203,1.03.61,1.33.406.3.937.45,1.59.45.787,0,1.466-.196,2.04-.59Z"></path>
    <path class="cls-11" d="M199.437,82.528h1.02c.133,0,.2.067.2.2v13.6c0,.134-.067.2-.2.2h-1.02c-.133,0-.2-.066-.2-.2v-.84c0-.026-.01-.043-.03-.05s-.043.004-.07.03c-.293.387-.657.687-1.09.899-.434.214-.917.32-1.45.32-.934,0-1.717-.24-2.35-.72-.634-.48-1.07-1.134-1.31-1.96-.187-.601-.28-1.447-.28-2.54,0-1.106.08-1.934.24-2.48.24-.853.68-1.522,1.32-2.01.64-.486,1.433-.729,2.38-.729.52,0,1,.103,1.44.31s.806.503,1.1.89c.027.027.05.037.07.03s.03-.023.03-.05v-4.7c0-.133.067-.2.2-.2ZM199.137,92.969c.053-.36.08-.86.08-1.5s-.027-1.144-.08-1.51c-.053-.367-.146-.69-.28-.971-.16-.453-.423-.816-.79-1.09s-.803-.41-1.31-.41c-.533,0-.993.134-1.38.4s-.667.62-.84,1.06c-.16.294-.277.624-.35.99-.074.367-.11.877-.11,1.53,0,.627.026,1.116.08,1.47s.147.67.28.95c.16.479.443.86.85,1.14.406.28.89.42,1.45.42.533,0,.98-.14,1.34-.42.36-.279.626-.653.8-1.12.12-.267.207-.58.26-.939Z"></path>
    <path class="cls-8" d="M38.128,31.03l-10.618-10.618c-.073-.073-.16-.13-.256-.17-.193-.08-.409-.08-.602,0-.096.04-.183.097-.256.17l-10.618,10.618c-.308.308-.308.806,0,1.113s.806.308,1.113,0l9.274-9.274v44.918c0,.435.353.787.787.787s.787-.352.787-.787V22.87l9.274,9.274c.154.154.355.231.557.231s.403-.077.557-.231c.308-.308.308-.806,0-1.113Z"></path>
    <path class="cls-14" d="M60.079,56.115c.059.09.149.135.27.135h27.09c.599,0,.9.302.9.9v5.67c0,.601-.301.9-.9.9h-37.71c-.6,0-.9-.3-.9-.9v-5.49c0-.419.149-.778.45-1.08,2.039-2.34,6.719-7.829,14.04-16.47l6.21-7.47c5.58-6.66,8.37-11.819,8.37-15.48,0-2.819-.945-5.085-2.835-6.795-1.89-1.71-4.396-2.564-7.515-2.564s-5.611.87-7.47,2.609c-1.86,1.741-2.76,4.021-2.7,6.841v2.699c0,.601-.301.9-.9.9h-6.93c-.601,0-.9-.3-.9-.9v-3.87c.119-3.118,1.004-5.879,2.655-8.279,1.649-2.399,3.884-4.244,6.705-5.535,2.819-1.29,5.999-1.936,9.54-1.936,3.839,0,7.2.721,10.08,2.16,2.88,1.44,5.099,3.42,6.66,5.94,1.56,2.52,2.34,5.37,2.34,8.55,0,4.981-2.7,10.86-8.1,17.64-2.4,3.061-5.251,6.496-8.55,10.306-3.3,3.811-6.601,7.546-9.9,11.205-.061.121-.061.225,0,.314Z"></path>
    <path class="cls-10" d="M136.038,44.011c0,2.82-.36,5.431-1.08,7.83-1.14,3.84-3.316,6.885-6.525,9.135-3.21,2.25-7.035,3.375-11.475,3.375-4.38,0-8.131-1.08-11.25-3.24-3.12-2.16-5.31-5.099-6.57-8.82-.601-1.679-.931-3.149-.99-4.409v-.181c0-.479.27-.72.81-.72h7.11c.54,0,.839.27.9.81.059.421.209,1.051.45,1.891.659,2.221,1.814,3.976,3.465,5.265,1.649,1.291,3.645,1.936,5.985,1.936,2.459,0,4.545-.676,6.255-2.025s2.865-3.225,3.465-5.625c.419-1.26.63-3,.63-5.22,0-1.98-.18-3.81-.54-5.49-.42-2.279-1.485-4.034-3.195-5.265-1.71-1.229-3.825-1.846-6.345-1.846-2.34,0-4.441.526-6.3,1.575-1.861,1.051-3.06,2.445-3.6,4.186-.18.54-.511.81-.99.81h-7.2c-.601,0-.9-.3-.9-.9V1.62c0-.599.299-.899.9-.899h33.66c.599,0,.9.301.9.899v5.67c0,.601-.301.9-.9.9h-25.56c-.241,0-.36.121-.36.36l-.09,18.81c0,.36.149.45.45.271,1.44-1.261,3.105-2.205,4.995-2.835,1.89-.631,3.884-.945,5.985-.945,4.199,0,7.814,1.051,10.845,3.149,3.029,2.102,5.054,5.04,6.075,8.82.659,2.641.99,5.371.99,8.19Z"></path>
    <path class="cls-13" d="M150.797,36.061c-1.24-.72-2.22-1.7-2.94-2.94-.72-1.239-1.08-2.58-1.08-4.02s.36-2.77,1.08-3.99c.72-1.22,1.7-2.189,2.94-2.91,1.24-.72,2.6-1.08,4.08-1.08,1.44,0,2.78.36,4.02,1.08,1.239.721,2.22,1.69,2.94,2.91.72,1.221,1.08,2.55,1.08,3.99s-.36,2.78-1.08,4.02c-.72,1.24-1.701,2.221-2.94,2.94-1.24.72-2.58,1.08-4.02,1.08-1.48,0-2.84-.36-4.08-1.08ZM159.468,33.721c1.26-1.28,1.89-2.82,1.89-4.62s-.63-3.33-1.89-4.59c-1.26-1.261-2.79-1.891-4.59-1.891-1.84,0-3.39.63-4.65,1.891-1.26,1.26-1.89,2.79-1.89,4.59,0,1.84.63,3.39,1.89,4.649,1.26,1.261,2.81,1.891,4.65,1.891,1.8,0,3.33-.64,4.59-1.92ZM153.708,63.511c-.1-.14-.09-.31.03-.511l22.68-40.859c.16-.279.399-.42.72-.42h.3c.24,0,.399.07.48.21.08.141.06.311-.06.51l-22.68,40.86c-.12.28-.36.42-.72.42h-.3c-.201,0-.351-.069-.45-.21ZM172.817,63.24c-1.24-.72-2.22-1.699-2.94-2.939-.72-1.239-1.08-2.58-1.08-4.021s.36-2.77,1.08-3.99c.72-1.22,1.7-2.189,2.94-2.909,1.24-.721,2.6-1.08,4.08-1.08,1.44,0,2.78.359,4.02,1.08,1.239.72,2.22,1.689,2.94,2.909.72,1.221,1.08,2.551,1.08,3.99s-.36,2.781-1.08,4.021c-.72,1.24-1.701,2.22-2.94,2.939-1.24.721-2.58,1.08-4.02,1.08-1.48,0-2.84-.359-4.08-1.08ZM181.428,60.9c1.26-1.279,1.89-2.82,1.89-4.62s-.63-3.33-1.89-4.59c-1.26-1.26-2.771-1.89-4.53-1.89-1.84,0-3.39.63-4.65,1.89s-1.89,2.79-1.89,4.59c0,1.841.63,3.391,1.89,4.65s2.81,1.89,4.65,1.89c1.76,0,3.27-.64,4.53-1.92Z"></path>
  </g>
</svg>
