<?xml version="1.0" encoding="UTF-8"?>
<!-- Generator: Adobe Illustrator 28.1.0, SVG Export Plug-In . SVG Version: 6.00 Build 0)  -->
<svg xmlns="http://www.w3.org/2000/svg" xmlns:xlink="http://www.w3.org/1999/xlink" version="1.1" id="Layer_2_00000105408247653136340880000007444392862897779588_" x="0px" y="0px" viewBox="0 0 205.3 100" style="enable-background:new 0 0 205.3 100;" xml:space="preserve" height="100">
<style type="text/css">
	.st0{fill:url(#SVGID_1_);}
	.st1{fill:url(#SVGID_00000013165938515780204180000009671989793419166631_);}
	.st2{fill:url(#SVGID_00000078026261237013698060000003384455340557527220_);}
	.st3{fill:url(#SVGID_00000169551895467699588520000003354172956665085880_);}
	.st4{fill:url(#SVGID_00000183958682855483813110000007110807177550891452_);}
	.st5{fill:url(#SVGID_00000121281236021861386150000006281367498542155697_);}
	.st6{fill:url(#SVGID_00000053534161621428763830000011135865412366974107_);}
	.st7{fill:url(#SVGID_00000050648986911752287840000006924903121608516278_);}
	.st8{fill:url(#SVGID_00000181072590064168695150000008048352920043597458_);}
	.st9{fill:url(#SVGID_00000013157399870487719950000006618044145968613554_);}
	.st10{fill:url(#SVGID_00000150062344104467390640000005717800308729016212_);}
	.st11{fill:url(#SVGID_00000008851495841074516740000012738311036247228067_);}
	.st12{fill:url(#SVGID_00000001649130610973638310000006927934684366212997_);}
	.st13{fill:url(#SVGID_00000039815280803569269830000009988729699614245506_);}
	.st14{fill:url(#SVGID_00000085215444749050864740000004491545304673662349_);}
	.st15{fill:url(#SVGID_00000029740262350778914070000018178941202749728432_);}
	.st16{fill:url(#SVGID_00000003090370894268969910000015320568342910642104_);}
	.st17{fill:url(#SVGID_00000004526236240768984750000006812969703275835571_);}
	.st18{fill:url(#SVGID_00000110460534712941456180000005038137116039371696_);}
	.st19{fill:url(#SVGID_00000000200946422169666060000003718553917963646394_);}
</style>
<g id="Layer_3">
	
		<linearGradient id="SVGID_1_" gradientUnits="userSpaceOnUse" x1="-2287.0679" y1="2991.3516" x2="-2287.0679" y2="3039.7446" gradientTransform="matrix(-0.9901 0 0 0.9901 -2234.6902 -2945.8186)">
		<stop offset="0" style="stop-color:#32B1B1;stop-opacity:0"></stop>
		<stop offset="0.72" style="stop-color:#32B1B1"></stop>
	</linearGradient>
	<path class="st0" d="M18.6,53l10.5,10.5c0.1,0.1,0.2,0.1,0.3,0.2c0.2,0.1,0.4,0.1,0.6,0c0.1,0,0.2-0.1,0.3-0.2L40.7,53   c0.3-0.3,0.3-0.8,0-1.1s-0.8-0.3-1.1,0l-9.2,9.2V16.6c0-0.4-0.3-0.8-0.8-0.8c-0.4,0-0.8,0.3-0.8,0.8V61l-9.2-9.2   c-0.2-0.2-0.4-0.2-0.6-0.2s-0.4,0.1-0.6,0.2C18.3,52.2,18.3,52.7,18.6,53L18.6,53z"></path>
	
		<linearGradient id="SVGID_00000156565157780357802450000016971539202012466090_" gradientUnits="userSpaceOnUse" x1="-868.6956" y1="7.0674" x2="179.4004" y2="7.0674" gradientTransform="matrix(0.9901 0 0 -0.9901 -7.6675 96.1253)">
		<stop offset="0.246" style="stop-color:#3C84E1"></stop>
		<stop offset="1" style="stop-color:#32B9A9"></stop>
	</linearGradient>
	<path style="fill:url(#SVGID_00000156565157780357802450000016971539202012466090_);" d="M34.7,83.4h-7.3c-0.1,0-0.1,0-0.1,0.1v4.9   c0,0.1,0,0.1,0.1,0.1h5.1c0.1,0,0.2,0.1,0.2,0.2v0.8c0,0.1-0.1,0.2-0.2,0.2h-5.1c-0.1,0-0.1,0-0.1,0.1v6.1c0,0.1-0.1,0.2-0.2,0.2   h-1C26,96.1,26,96,26,95.9V82.4c0-0.1,0.1-0.2,0.2-0.2h8.6c0.1,0,0.2,0.1,0.2,0.2v0.8C34.9,83.4,34.8,83.4,34.7,83.4L34.7,83.4z"></path>
	
		<linearGradient id="SVGID_00000148633219447500430730000000816354067615329165_" gradientUnits="userSpaceOnUse" x1="-868.6956" y1="5.1259" x2="179.4004" y2="5.1259" gradientTransform="matrix(0.9901 0 0 -0.9901 -7.6675 96.1253)">
		<stop offset="0.246" style="stop-color:#3C84E1"></stop>
		<stop offset="1" style="stop-color:#32B9A9"></stop>
	</linearGradient>
	<path style="fill:url(#SVGID_00000148633219447500430730000000816354067615329165_);" d="M42.5,86.8c0.6,0.6,1,1.4,1,2.4v6.7   c0,0.1-0.1,0.2-0.2,0.2h-1c-0.1,0-0.2-0.1-0.2-0.2V95c0,0,0,0,0-0.1c0,0,0,0-0.1,0c-0.3,0.4-0.8,0.7-1.3,0.9   c-0.5,0.2-1.1,0.3-1.8,0.3c-0.9,0-1.7-0.2-2.4-0.7c-0.6-0.5-1-1.2-1-2.2c0-1,0.4-1.8,1.1-2.3s1.7-0.9,3-0.9H42c0.1,0,0.1,0,0.1-0.1   v-0.8c0-0.7-0.2-1.2-0.6-1.6c-0.4-0.4-1-0.6-1.8-0.6c-0.6,0-1.1,0.1-1.5,0.4c-0.4,0.2-0.6,0.6-0.7,1c0,0.1-0.1,0.2-0.2,0.2   l-1.1-0.1c-0.1,0-0.2-0.1-0.2-0.2c0.1-0.7,0.5-1.3,1.2-1.8s1.5-0.7,2.6-0.7C40.9,85.9,41.9,86.2,42.5,86.8L42.5,86.8z M41.2,94.4   c0.6-0.4,0.9-0.9,0.9-1.6v-1.5c0-0.1,0-0.1-0.1-0.1h-2.1c-0.9,0-1.6,0.2-2.1,0.5S37,92.6,37,93.2c0,0.6,0.2,1,0.6,1.3   c0.4,0.3,0.9,0.4,1.6,0.4C40,95,40.7,94.8,41.2,94.4L41.2,94.4z"></path>
	
		<linearGradient id="SVGID_00000030470401483587860840000010695293357639034010_" gradientUnits="userSpaceOnUse" x1="-868.6956" y1="5.1279" x2="179.4004" y2="5.1279" gradientTransform="matrix(0.9901 0 0 -0.9901 -7.6675 96.1253)">
		<stop offset="0.246" style="stop-color:#3C84E1"></stop>
		<stop offset="1" style="stop-color:#32B9A9"></stop>
	</linearGradient>
	<path style="fill:url(#SVGID_00000030470401483587860840000010695293357639034010_);" d="M47.7,95.8c-0.6-0.2-1-0.6-1.3-1   c-0.3-0.4-0.5-0.8-0.5-1.3v-0.2c0-0.1,0.1-0.2,0.2-0.2h1c0.1,0,0.2,0.1,0.2,0.2v0.2c0,0.4,0.2,0.8,0.7,1.1c0.5,0.3,1,0.5,1.7,0.5   s1.2-0.2,1.7-0.5c0.4-0.3,0.6-0.7,0.6-1.2c0-0.3-0.1-0.6-0.3-0.8c-0.2-0.2-0.5-0.4-0.8-0.5c-0.3-0.1-0.8-0.3-1.4-0.5   c-0.7-0.2-1.3-0.4-1.8-0.6c-0.5-0.2-0.9-0.5-1.2-0.9c-0.3-0.4-0.5-0.9-0.5-1.4c0-0.8,0.3-1.5,1-2c0.7-0.5,1.5-0.8,2.6-0.8   c0.7,0,1.4,0.1,1.9,0.4c0.6,0.2,1,0.6,1.3,1c0.3,0.4,0.5,0.9,0.5,1.4v0.1c0,0.1-0.1,0.2-0.2,0.2h-0.9c-0.1,0-0.2-0.1-0.2-0.2v-0.1   c0-0.4-0.2-0.8-0.6-1.1c-0.4-0.3-1-0.5-1.7-0.5c-0.7,0-1.2,0.1-1.6,0.4c-0.4,0.3-0.6,0.6-0.6,1.1c0,0.4,0.2,0.8,0.6,1   c0.4,0.2,1,0.5,1.8,0.7c0.8,0.2,1.4,0.4,1.9,0.6c0.5,0.2,0.9,0.5,1.2,0.9c0.3,0.4,0.5,0.9,0.5,1.5c0,0.9-0.3,1.5-1,2.1   c-0.7,0.5-1.6,0.8-2.7,0.8C49,96.2,48.3,96,47.7,95.8L47.7,95.8z"></path>
	
		<linearGradient id="SVGID_00000060005058859875821320000018236098587450890670_" gradientUnits="userSpaceOnUse" x1="-868.6956" y1="6.4159" x2="179.4004" y2="6.4159" gradientTransform="matrix(0.9901 0 0 -0.9901 -7.6675 96.1253)">
		<stop offset="0.246" style="stop-color:#3C84E1"></stop>
		<stop offset="1" style="stop-color:#32B9A9"></stop>
	</linearGradient>
	<path style="fill:url(#SVGID_00000060005058859875821320000018236098587450890670_);" d="M60.2,87.2H58c-0.1,0-0.1,0-0.1,0.1v5.8   c0,0.6,0.1,1.1,0.4,1.3c0.3,0.3,0.7,0.4,1.3,0.4h0.5c0.1,0,0.2,0.1,0.2,0.2v0.8c0,0.1-0.1,0.2-0.2,0.2c-0.2,0-0.4,0-0.7,0   c-1,0-1.7-0.2-2.2-0.5c-0.5-0.4-0.7-1-0.7-2v-6.3c0-0.1,0-0.1-0.1-0.1h-1.2c-0.1,0-0.2-0.1-0.2-0.2v-0.8c0-0.1,0.1-0.2,0.2-0.2h1.2   c0.1,0,0.1,0,0.1-0.1v-2.3c0-0.1,0.1-0.2,0.2-0.2h1c0.1,0,0.2,0.1,0.2,0.2V86c0,0.1,0,0.1,0.1,0.1h2.2c0.1,0,0.2,0.1,0.2,0.2V87   C60.4,87.1,60.3,87.2,60.2,87.2z"></path>
	
		<linearGradient id="SVGID_00000180333669934457774450000012679118902545695888_" gradientUnits="userSpaceOnUse" x1="-868.6956" y1="5.1154" x2="179.4004" y2="5.1154" gradientTransform="matrix(0.9901 0 0 -0.9901 -7.6675 96.1253)">
		<stop offset="0.246" style="stop-color:#3C84E1"></stop>
		<stop offset="1" style="stop-color:#32B9A9"></stop>
	</linearGradient>
	<path style="fill:url(#SVGID_00000180333669934457774450000012679118902545695888_);" d="M70.6,90.8v0.6c0,0.1-0.1,0.2-0.2,0.2H64   c-0.1,0-0.1,0-0.1,0.1c0,0.7,0.1,1.2,0.1,1.4c0.1,0.6,0.5,1.1,0.9,1.4c0.5,0.3,1.1,0.5,1.8,0.5c0.6,0,1-0.1,1.5-0.4   c0.4-0.3,0.8-0.6,1-1.1c0.1-0.1,0.2-0.1,0.3-0.1l0.8,0.5c0.1,0.1,0.1,0.2,0.1,0.3c-0.3,0.6-0.8,1.1-1.5,1.5   c-0.7,0.4-1.4,0.5-2.3,0.5c-0.9,0-1.7-0.2-2.4-0.7c-0.6-0.4-1.1-1-1.4-1.8c-0.2-0.6-0.4-1.5-0.4-2.7c0-0.6,0-1,0-1.4   c0-0.4,0.1-0.7,0.1-0.9c0.2-0.9,0.7-1.5,1.4-2.1c0.7-0.5,1.5-0.8,2.5-0.8c1.2,0,2.1,0.3,2.8,0.9c0.6,0.6,1,1.5,1.2,2.6   C70.6,89.7,70.6,90.2,70.6,90.8L70.6,90.8z M64.9,87.6c-0.4,0.3-0.7,0.8-0.8,1.4c-0.1,0.3-0.1,0.7-0.2,1.3c0,0.1,0,0.1,0.1,0.1h5.1   c0.1,0,0.1,0,0.1-0.1c0-0.6-0.1-1-0.1-1.3c-0.1-0.6-0.4-1.1-0.9-1.4c-0.4-0.4-1-0.5-1.7-0.5C65.9,87.1,65.3,87.3,64.9,87.6z"></path>
	
		<linearGradient id="SVGID_00000026872981946353435820000010424335481097543336_" gradientUnits="userSpaceOnUse" x1="-868.6956" y1="5.1769" x2="179.4004" y2="5.1769" gradientTransform="matrix(0.9901 0 0 -0.9901 -7.6675 96.1253)">
		<stop offset="0.246" style="stop-color:#3C84E1"></stop>
		<stop offset="1" style="stop-color:#32B9A9"></stop>
	</linearGradient>
	<path style="fill:url(#SVGID_00000026872981946353435820000010424335481097543336_);" d="M78.5,86.2c0.1,0.1,0.1,0.1,0.1,0.3   l-0.2,1c0,0.1-0.1,0.2-0.3,0.1c-0.2-0.1-0.5-0.1-0.8-0.1l-0.3,0c-0.7,0-1.3,0.3-1.7,0.8c-0.4,0.5-0.7,1.1-0.7,1.8v5.8   c0,0.1-0.1,0.2-0.2,0.2h-1c-0.1,0-0.2-0.1-0.2-0.2v-9.6c0-0.1,0.1-0.2,0.2-0.2h1c0.1,0,0.2,0.1,0.2,0.2v1.2c0,0,0,0.1,0,0.1   c0,0,0,0,0,0c0.3-0.5,0.6-0.9,1.1-1.1c0.4-0.3,0.9-0.4,1.5-0.4C77.9,85.9,78.2,86,78.5,86.2L78.5,86.2z"></path>
	
		<linearGradient id="SVGID_00000155135064939891166320000002903195010955583925_" gradientUnits="userSpaceOnUse" x1="-868.6956" y1="5.1269" x2="179.4004" y2="5.1269" gradientTransform="matrix(0.9901 0 0 -0.9901 -7.6675 96.1253)">
		<stop offset="0.246" style="stop-color:#3C84E1"></stop>
		<stop offset="1" style="stop-color:#32B9A9"></stop>
	</linearGradient>
	<path style="fill:url(#SVGID_00000155135064939891166320000002903195010955583925_);" d="M85.9,95.5c-0.7-0.5-1.2-1.2-1.4-2   c-0.2-0.6-0.3-1.4-0.3-2.4s0.1-1.8,0.3-2.4c0.3-0.8,0.7-1.5,1.4-2c0.7-0.5,1.5-0.7,2.5-0.7c0.9,0,1.7,0.2,2.4,0.7   c0.7,0.5,1.1,1.1,1.4,2c0.2,0.6,0.3,1.4,0.3,2.4c0,1.1-0.1,1.9-0.3,2.4c-0.3,0.9-0.7,1.5-1.4,2c-0.7,0.5-1.5,0.7-2.4,0.7   C87.4,96.2,86.6,96,85.9,95.5L85.9,95.5z M90,94.5c0.4-0.4,0.8-0.8,0.9-1.4c0.1-0.5,0.2-1.1,0.2-2c0-0.9-0.1-1.5-0.2-2   c-0.2-0.6-0.5-1.1-0.9-1.4c-0.5-0.4-1-0.5-1.7-0.5c-0.6,0-1.2,0.2-1.6,0.5C86.3,88,86,88.5,85.8,89c-0.1,0.5-0.2,1.1-0.2,2   s0.1,1.5,0.2,2c0.1,0.6,0.4,1.1,0.9,1.4c0.5,0.4,1,0.5,1.7,0.5C89,95,89.5,94.8,90,94.5z"></path>
	
		<linearGradient id="SVGID_00000070119341173716454060000010772020688736887448_" gradientUnits="userSpaceOnUse" x1="-868.6956" y1="5.1964" x2="179.4004" y2="5.1964" gradientTransform="matrix(0.9901 0 0 -0.9901 -7.6675 96.1253)">
		<stop offset="0.246" style="stop-color:#3C84E1"></stop>
		<stop offset="1" style="stop-color:#32B9A9"></stop>
	</linearGradient>
	<path style="fill:url(#SVGID_00000070119341173716454060000010772020688736887448_);" d="M102,86.8c0.6,0.6,0.9,1.5,0.9,2.5v6.5   c0,0.1-0.1,0.2-0.2,0.2h-1c-0.1,0-0.2-0.1-0.2-0.2v-6.3c0-0.7-0.2-1.3-0.7-1.8c-0.4-0.5-1-0.7-1.7-0.7c-0.7,0-1.3,0.2-1.8,0.7   c-0.4,0.4-0.7,1-0.7,1.8v6.3c0,0.1-0.1,0.2-0.2,0.2h-1c-0.1,0-0.2-0.1-0.2-0.2v-9.6c0-0.1,0.1-0.2,0.2-0.2h1c0.1,0,0.2,0.1,0.2,0.2   v0.9c0,0,0,0,0,0.1c0,0,0,0,0,0c0.6-0.8,1.5-1.2,2.7-1.2C100.6,85.9,101.4,86.2,102,86.8z"></path>
	
		<linearGradient id="SVGID_00000136410902272595235040000011273973231005280695_" gradientUnits="userSpaceOnUse" x1="-868.6956" y1="6.9864" x2="179.4004" y2="6.9864" gradientTransform="matrix(0.9901 0 0 -0.9901 -7.6675 96.1253)">
		<stop offset="0.246" style="stop-color:#3C84E1"></stop>
		<stop offset="1" style="stop-color:#32B9A9"></stop>
	</linearGradient>
	<path style="fill:url(#SVGID_00000136410902272595235040000011273973231005280695_);" d="M113.9,91c0,1.1-0.1,1.9-0.3,2.5   c-0.3,0.8-0.7,1.5-1.3,1.9c-0.6,0.5-1.4,0.7-2.3,0.7c-0.5,0-1-0.1-1.4-0.3c-0.4-0.2-0.8-0.5-1.1-0.9c0,0,0,0-0.1,0s0,0,0,0v0.9   c0,0.1-0.1,0.2-0.2,0.2h-1c-0.1,0-0.2-0.1-0.2-0.2V82.4c0-0.1,0.1-0.2,0.2-0.2h1c0.1,0,0.2,0.1,0.2,0.2v4.7c0,0,0,0,0,0.1   c0,0,0,0,0.1,0c0.3-0.4,0.7-0.7,1.1-0.9c0.4-0.2,0.9-0.3,1.4-0.3c0.9,0,1.7,0.2,2.4,0.7c0.6,0.5,1.1,1.1,1.3,2   C113.9,89.2,113.9,90,113.9,91L113.9,91z M112.4,92.5c0.1-0.4,0.1-0.8,0.1-1.5c0-0.6,0-1.2-0.1-1.5c-0.1-0.4-0.2-0.7-0.3-1   c-0.2-0.4-0.4-0.8-0.8-1s-0.8-0.4-1.4-0.4c-0.5,0-0.9,0.1-1.3,0.4c-0.4,0.3-0.6,0.6-0.8,1.1c-0.1,0.3-0.2,0.6-0.3,1   c-0.1,0.4-0.1,0.9-0.1,1.5c0,0.6,0,1.1,0.1,1.5c0.1,0.3,0.1,0.7,0.3,0.9c0.2,0.5,0.4,0.8,0.8,1.1c0.4,0.3,0.8,0.4,1.3,0.4   c0.6,0,1-0.1,1.4-0.4c0.4-0.3,0.7-0.7,0.8-1.1C112.3,93.2,112.4,92.9,112.4,92.5z"></path>
	
		<linearGradient id="SVGID_00000084516303326028242230000012845752670901718971_" gradientUnits="userSpaceOnUse" x1="-868.6956" y1="5.1269" x2="179.4004" y2="5.1269" gradientTransform="matrix(0.9901 0 0 -0.9901 -7.6675 96.1253)">
		<stop offset="0.246" style="stop-color:#3C84E1"></stop>
		<stop offset="1" style="stop-color:#32B9A9"></stop>
	</linearGradient>
	<path style="fill:url(#SVGID_00000084516303326028242230000012845752670901718971_);" d="M118,95.5c-0.7-0.5-1.2-1.2-1.4-2   c-0.2-0.6-0.3-1.4-0.3-2.4s0.1-1.8,0.3-2.4c0.3-0.8,0.7-1.5,1.4-2c0.7-0.5,1.5-0.7,2.5-0.7c0.9,0,1.7,0.2,2.4,0.7   c0.7,0.5,1.1,1.1,1.4,2c0.2,0.6,0.3,1.4,0.3,2.4c0,1.1-0.1,1.9-0.3,2.4c-0.3,0.9-0.7,1.5-1.4,2c-0.7,0.5-1.5,0.7-2.4,0.7   C119.5,96.2,118.7,96,118,95.5L118,95.5z M122.1,94.5c0.4-0.4,0.8-0.8,0.9-1.4c0.1-0.5,0.2-1.1,0.2-2c0-0.9-0.1-1.5-0.2-2   c-0.2-0.6-0.5-1.1-0.9-1.4s-1-0.5-1.7-0.5s-1.2,0.2-1.6,0.5c-0.4,0.3-0.8,0.8-0.9,1.4c-0.1,0.5-0.2,1.1-0.2,2s0.1,1.5,0.2,2   c0.1,0.6,0.4,1.1,0.9,1.4c0.5,0.4,1,0.5,1.7,0.5C121.1,95,121.7,94.8,122.1,94.5z"></path>
	
		<linearGradient id="SVGID_00000036938316091703727160000016622775894524507805_" gradientUnits="userSpaceOnUse" x1="-868.6956" y1="5.1259" x2="179.4004" y2="5.1259" gradientTransform="matrix(0.9901 0 0 -0.9901 -7.6675 96.1253)">
		<stop offset="0.246" style="stop-color:#3C84E1"></stop>
		<stop offset="1" style="stop-color:#32B9A9"></stop>
	</linearGradient>
	<path style="fill:url(#SVGID_00000036938316091703727160000016622775894524507805_);" d="M133.7,86.8c0.6,0.6,1,1.4,1,2.4v6.7   c0,0.1-0.1,0.2-0.2,0.2h-1c-0.1,0-0.2-0.1-0.2-0.2V95c0,0,0,0,0-0.1c0,0,0,0-0.1,0c-0.3,0.4-0.8,0.7-1.3,0.9   c-0.5,0.2-1.1,0.3-1.8,0.3c-0.9,0-1.7-0.2-2.4-0.7c-0.6-0.5-1-1.2-1-2.2c0-1,0.4-1.8,1.1-2.3c0.7-0.6,1.7-0.9,3-0.9h2.3   c0.1,0,0.1,0,0.1-0.1v-0.8c0-0.7-0.2-1.2-0.6-1.6s-1-0.6-1.8-0.6c-0.6,0-1.1,0.1-1.5,0.4c-0.4,0.2-0.6,0.6-0.7,1   c0,0.1-0.1,0.2-0.2,0.2l-1.1-0.1c-0.1,0-0.2-0.1-0.2-0.2c0.1-0.7,0.5-1.3,1.2-1.8c0.7-0.5,1.5-0.7,2.6-0.7   C132.1,85.9,133,86.2,133.7,86.8L133.7,86.8z M132.4,94.4c0.6-0.4,0.9-0.9,0.9-1.6v-1.5c0-0.1,0-0.1-0.1-0.1h-2.1   c-0.9,0-1.6,0.2-2.1,0.5c-0.5,0.4-0.8,0.9-0.8,1.5c0,0.6,0.2,1,0.6,1.3c0.4,0.3,0.9,0.4,1.6,0.4C131.1,95,131.8,94.8,132.4,94.4   L132.4,94.4z"></path>
	
		<linearGradient id="SVGID_00000096033456472046777040000006162859681532959881_" gradientUnits="userSpaceOnUse" x1="-868.6956" y1="5.1769" x2="179.4004" y2="5.1769" gradientTransform="matrix(0.9901 0 0 -0.9901 -7.6675 96.1253)">
		<stop offset="0.246" style="stop-color:#3C84E1"></stop>
		<stop offset="1" style="stop-color:#32B9A9"></stop>
	</linearGradient>
	<path style="fill:url(#SVGID_00000096033456472046777040000006162859681532959881_);" d="M142.7,86.2c0.1,0.1,0.1,0.1,0.1,0.3   l-0.2,1c0,0.1-0.1,0.2-0.3,0.1c-0.2-0.1-0.5-0.1-0.8-0.1l-0.3,0c-0.7,0-1.3,0.3-1.7,0.8c-0.4,0.5-0.7,1.1-0.7,1.8v5.8   c0,0.1-0.1,0.2-0.2,0.2h-1c-0.1,0-0.2-0.1-0.2-0.2v-9.6c0-0.1,0.1-0.2,0.2-0.2h1c0.1,0,0.2,0.1,0.2,0.2v1.2c0,0,0,0.1,0,0.1   c0,0,0,0,0.1,0c0.3-0.5,0.6-0.9,1.1-1.1c0.4-0.3,0.9-0.4,1.5-0.4C142,85.9,142.4,86,142.7,86.2L142.7,86.2z"></path>
	
		<linearGradient id="SVGID_00000158749684545571384920000004432535237225777308_" gradientUnits="userSpaceOnUse" x1="-868.6956" y1="6.9879" x2="179.4004" y2="6.9879" gradientTransform="matrix(0.9901 0 0 -0.9901 -7.6675 96.1253)">
		<stop offset="0.246" style="stop-color:#3C84E1"></stop>
		<stop offset="1" style="stop-color:#32B9A9"></stop>
	</linearGradient>
	<path style="fill:url(#SVGID_00000158749684545571384920000004432535237225777308_);" d="M151.1,82.2h1c0.1,0,0.2,0.1,0.2,0.2v13.5   c0,0.1-0.1,0.2-0.2,0.2h-1c-0.1,0-0.2-0.1-0.2-0.2V95c0,0,0,0,0,0c0,0,0,0-0.1,0c-0.3,0.4-0.6,0.7-1.1,0.9   c-0.4,0.2-0.9,0.3-1.4,0.3c-0.9,0-1.7-0.2-2.3-0.7c-0.6-0.5-1.1-1.1-1.3-1.9c-0.2-0.6-0.3-1.4-0.3-2.5c0-1.1,0.1-1.9,0.2-2.5   c0.2-0.8,0.7-1.5,1.3-2c0.6-0.5,1.4-0.7,2.4-0.7c0.5,0,1,0.1,1.4,0.3c0.4,0.2,0.8,0.5,1.1,0.9c0,0,0.1,0,0.1,0c0,0,0,0,0,0v-4.7   C150.9,82.3,151,82.2,151.1,82.2L151.1,82.2z M150.8,92.5c0.1-0.4,0.1-0.9,0.1-1.5s0-1.1-0.1-1.5c-0.1-0.4-0.1-0.7-0.3-1   c-0.2-0.4-0.4-0.8-0.8-1.1c-0.4-0.3-0.8-0.4-1.3-0.4c-0.5,0-1,0.1-1.4,0.4c-0.4,0.3-0.7,0.6-0.8,1c-0.2,0.3-0.3,0.6-0.3,1   c-0.1,0.4-0.1,0.9-0.1,1.5c0,0.6,0,1.1,0.1,1.5c0.1,0.4,0.1,0.7,0.3,0.9c0.2,0.5,0.4,0.9,0.8,1.1c0.4,0.3,0.9,0.4,1.4,0.4   c0.5,0,1-0.1,1.3-0.4c0.4-0.3,0.6-0.6,0.8-1.1C150.7,93.2,150.7,92.9,150.8,92.5L150.8,92.5z"></path>
	
		<linearGradient id="SVGID_00000057868398844260234350000002779412079254939038_" gradientUnits="userSpaceOnUse" x1="-868.6956" y1="7.1774" x2="179.4004" y2="7.1774" gradientTransform="matrix(0.9901 0 0 -0.9901 -7.6675 96.1253)">
		<stop offset="0.246" style="stop-color:#3C84E1"></stop>
		<stop offset="1" style="stop-color:#32B9A9"></stop>
	</linearGradient>
	<path style="fill:url(#SVGID_00000057868398844260234350000002779412079254939038_);" d="M155.7,83.9c-0.2-0.2-0.3-0.5-0.3-0.8   c0-0.3,0.1-0.6,0.3-0.8c0.2-0.2,0.5-0.3,0.8-0.3c0.3,0,0.6,0.1,0.8,0.3c0.2,0.2,0.3,0.5,0.3,0.8c0,0.3-0.1,0.6-0.3,0.8   c-0.2,0.2-0.5,0.3-0.8,0.3S155.9,84.1,155.7,83.9z M155.7,95.8v-9.6c0-0.1,0.1-0.2,0.2-0.2h1c0.1,0,0.2,0.1,0.2,0.2v9.6   c0,0.1-0.1,0.2-0.2,0.2h-1C155.8,96,155.7,96,155.7,95.8z"></path>
	
		<linearGradient id="SVGID_00000177442954091505720500000012312045181696453264_" gradientUnits="userSpaceOnUse" x1="-868.6956" y1="5.1964" x2="179.4004" y2="5.1964" gradientTransform="matrix(0.9901 0 0 -0.9901 -7.6675 96.1253)">
		<stop offset="0.246" style="stop-color:#3C84E1"></stop>
		<stop offset="1" style="stop-color:#32B9A9"></stop>
	</linearGradient>
	<path style="fill:url(#SVGID_00000177442954091505720500000012312045181696453264_);" d="M167.2,86.8c0.6,0.6,0.9,1.5,0.9,2.5v6.5   c0,0.1-0.1,0.2-0.2,0.2h-1c-0.1,0-0.2-0.1-0.2-0.2v-6.3c0-0.7-0.2-1.3-0.7-1.8c-0.4-0.5-1-0.7-1.7-0.7c-0.7,0-1.3,0.2-1.8,0.7   c-0.4,0.4-0.7,1-0.7,1.8v6.3c0,0.1-0.1,0.2-0.2,0.2h-1c-0.1,0-0.2-0.1-0.2-0.2v-9.6c0-0.1,0.1-0.2,0.2-0.2h1c0.1,0,0.2,0.1,0.2,0.2   v0.9c0,0,0,0,0,0.1c0,0,0,0,0,0c0.6-0.8,1.5-1.2,2.7-1.2C165.8,85.9,166.6,86.2,167.2,86.8z"></path>
	
		<linearGradient id="SVGID_00000128481069366159980100000016999743088376985273_" gradientUnits="userSpaceOnUse" x1="-868.6956" y1="3.2164" x2="179.4004" y2="3.2164" gradientTransform="matrix(0.9901 0 0 -0.9901 -7.6675 96.1253)">
		<stop offset="0.246" style="stop-color:#3C84E1"></stop>
		<stop offset="1" style="stop-color:#32B9A9"></stop>
	</linearGradient>
	<path style="fill:url(#SVGID_00000128481069366159980100000016999743088376985273_);" d="M177.6,86h1c0.1,0,0.2,0.1,0.2,0.2v9.5   c0,1.5-0.4,2.6-1.3,3.2c-0.9,0.7-2,1-3.5,1c-0.3,0-0.5,0-0.7,0c-0.1,0-0.2-0.1-0.2-0.2l0-0.9c0-0.1,0-0.1,0.1-0.1s0.1,0,0.1,0   l0.5,0c1.2,0,2.1-0.2,2.7-0.7c0.6-0.5,0.8-1.2,0.8-2.3v-0.7c0,0,0,0,0,0c0,0,0,0-0.1,0c-0.6,0.8-1.5,1.2-2.6,1.2   c-0.9,0-1.6-0.2-2.3-0.7c-0.7-0.5-1.1-1.1-1.3-2c-0.2-0.5-0.2-1.3-0.2-2.4c0-0.6,0-1.1,0-1.5c0-0.4,0.1-0.8,0.2-1.1   c0.2-0.8,0.7-1.4,1.3-1.9c0.6-0.5,1.4-0.7,2.2-0.7c1.2,0,2.1,0.4,2.7,1.2c0,0,0,0,0.1,0s0,0,0-0.1v-0.8   C177.4,86.1,177.5,86,177.6,86L177.6,86z M177.4,92.3c0-0.3,0-0.7,0-1.3c0-0.7,0-1.1,0-1.4c0-0.2,0-0.4-0.1-0.6   c-0.1-0.6-0.4-1-0.8-1.4c-0.4-0.4-0.9-0.5-1.6-0.5c-0.6,0-1.1,0.2-1.6,0.5c-0.4,0.4-0.7,0.8-0.9,1.4c-0.1,0.4-0.2,1.1-0.2,2   c0,1,0.1,1.6,0.2,2c0.1,0.6,0.4,1,0.9,1.4c0.4,0.4,1,0.5,1.6,0.5c0.6,0,1.2-0.2,1.6-0.5c0.4-0.4,0.7-0.8,0.8-1.4   C177.3,92.8,177.4,92.6,177.4,92.3L177.4,92.3z"></path>
	
		<linearGradient id="SVGID_00000059285049652065423720000017232584608901298330_" gradientUnits="userSpaceOnUse" x1="-833.1046" y1="64.5104" x2="168.9894" y2="64.5104" gradientTransform="matrix(0.9901 0 0 -0.9901 -7.6675 96.1253)">
		<stop offset="0.246" style="stop-color:#3C84E1"></stop>
		<stop offset="1" style="stop-color:#32B9A9"></stop>
	</linearGradient>
	<path style="fill:url(#SVGID_00000059285049652065423720000017232584608901298330_);" d="M87.3,43.2c0,3.3-0.5,6.3-1.5,8.8   c-1.4,3.7-3.6,6.6-6.8,8.7c-3.2,2-7,3.1-11.4,3.1c-4.4,0-8.2-1.1-11.4-3.3c-3.2-2.2-5.5-5.2-6.9-9c-0.7-1.8-1.1-4.2-1.2-7.2   c0-0.7,0.4-1.1,1.1-1.1h8.3c0.7,0,1.1,0.4,1.1,1.1c0.1,1.9,0.4,3.4,0.9,4.5c0.5,1.9,1.5,3.4,3,4.5c1.5,1.1,3.2,1.6,5.3,1.6   c3.9,0,6.6-1.8,8.1-5.3c0.8-1.7,1.2-3.9,1.2-6.7c0-3-0.4-5.5-1.3-7.5c-1.5-3.3-4.2-5-8-5c-1,0-2.4,0.6-4.1,1.8   c-0.2,0.1-0.4,0.2-0.6,0.2c-0.3,0-0.6-0.2-0.9-0.5l-4.1-5.7c-0.2-0.3-0.3-0.5-0.3-0.7c0-0.3,0.1-0.6,0.4-0.8l14.7-14.4   c0.1-0.1,0.1-0.2,0.1-0.4c-0.1-0.1-0.2-0.2-0.4-0.2H50c-0.3,0-0.6-0.1-0.8-0.3C49.1,9.1,49,8.9,49,8.6V1.8c0-0.3,0.1-0.5,0.3-0.8   c0.2-0.2,0.5-0.3,0.8-0.3h35.6c0.3,0,0.5,0.1,0.8,0.3c0.2,0.2,0.3,0.5,0.3,0.8v7.8c0,0.5-0.2,1-0.5,1.3L73.4,23.7   c-0.2,0.2-0.1,0.4,0.4,0.5c5.5,0.8,9.4,3.8,11.8,9.2C86.7,36.3,87.3,39.5,87.3,43.2L87.3,43.2z"></path>
	
		<linearGradient id="SVGID_00000065786035715656217100000010115412404685307563_" gradientUnits="userSpaceOnUse" x1="-833.1046" y1="64.7359" x2="168.9894" y2="64.7359" gradientTransform="matrix(0.9901 0 0 -0.9901 -7.6675 96.1253)">
		<stop offset="0.246" style="stop-color:#3C84E1"></stop>
		<stop offset="1" style="stop-color:#32B9A9"></stop>
	</linearGradient>
	<path style="fill:url(#SVGID_00000065786035715656217100000010115412404685307563_);" d="M102.2,58.8c-3.7-3.5-5.5-8.3-5.5-14.3   V19.3c0-5.9,1.8-10.6,5.5-14.1C105.8,1.7,110.8,0,117,0c6.2,0,11.2,1.7,14.9,5.2c3.7,3.5,5.6,8.2,5.6,14.1v25.1   c0,6-1.9,10.8-5.6,14.3c-3.7,3.5-8.7,5.3-14.9,5.3C110.8,64.1,105.8,62.3,102.2,58.8z M124.4,52.3c1.8-1.8,2.8-4.3,2.8-7.4V19   c0-3.1-0.9-5.5-2.8-7.4c-1.8-1.8-4.3-2.7-7.4-2.7c-3,0-5.5,0.9-7.3,2.7s-2.7,4.3-2.7,7.4v26c0,3.1,0.9,5.5,2.7,7.4   c1.8,1.8,4.2,2.7,7.3,2.7C120.1,55.1,122.6,54.2,124.4,52.3z"></path>
	
		<linearGradient id="SVGID_00000060752581989180118530000016496861668405529482_" gradientUnits="userSpaceOnUse" x1="-833.1046" y1="54.3699" x2="168.9894" y2="54.3699" gradientTransform="matrix(0.9901 0 0 -0.9901 -7.6675 96.1253)">
		<stop offset="0.246" style="stop-color:#3C84E1"></stop>
		<stop offset="1" style="stop-color:#32B9A9"></stop>
	</linearGradient>
	<path style="fill:url(#SVGID_00000060752581989180118530000016496861668405529482_);" d="M153.1,35.7c-1.2-0.7-2.2-1.7-2.9-2.9   c-0.7-1.2-1.1-2.6-1.1-4c0-1.4,0.4-2.7,1.1-4c0.7-1.2,1.7-2.2,2.9-2.9c1.2-0.7,2.6-1.1,4-1.1c1.4,0,2.8,0.4,4,1.1   c1.2,0.7,2.2,1.7,2.9,2.9c0.7,1.2,1.1,2.5,1.1,4c0,1.4-0.4,2.8-1.1,4c-0.7,1.2-1.7,2.2-2.9,2.9c-1.2,0.7-2.6,1.1-4,1.1   C155.7,36.8,154.3,36.4,153.1,35.7z M161.7,33.4c1.2-1.3,1.9-2.8,1.9-4.6s-0.6-3.3-1.9-4.5c-1.2-1.2-2.8-1.9-4.5-1.9   c-1.8,0-3.4,0.6-4.6,1.9c-1.2,1.2-1.9,2.8-1.9,4.5c0,1.8,0.6,3.4,1.9,4.6c1.2,1.2,2.8,1.9,4.6,1.9   C158.9,35.3,160.5,34.7,161.7,33.4z M156,62.9c-0.1-0.1-0.1-0.3,0-0.5l22.5-40.5c0.2-0.3,0.4-0.4,0.7-0.4h0.3   c0.2,0,0.4,0.1,0.5,0.2c0.1,0.1,0.1,0.3-0.1,0.5l-22.5,40.5c-0.1,0.3-0.4,0.4-0.7,0.4h-0.3C156.2,63.1,156.1,63,156,62.9L156,62.9z    M174.9,62.6c-1.2-0.7-2.2-1.7-2.9-2.9c-0.7-1.2-1.1-2.6-1.1-4c0-1.4,0.4-2.7,1.1-4c0.7-1.2,1.7-2.2,2.9-2.9c1.2-0.7,2.6-1.1,4-1.1   c1.4,0,2.8,0.4,4,1.1c1.2,0.7,2.2,1.7,2.9,2.9c0.7,1.2,1.1,2.5,1.1,4c0,1.4-0.4,2.8-1.1,4c-0.7,1.2-1.7,2.2-2.9,2.9   c-1.2,0.7-2.6,1.1-4,1.1C177.5,63.7,176.1,63.3,174.9,62.6z M183.4,60.3c1.2-1.3,1.9-2.8,1.9-4.6c0-1.8-0.6-3.3-1.9-4.5   c-1.2-1.2-2.7-1.9-4.5-1.9c-1.8,0-3.4,0.6-4.6,1.9s-1.9,2.8-1.9,4.5c0,1.8,0.6,3.4,1.9,4.6c1.2,1.2,2.8,1.9,4.6,1.9   C180.7,62.2,182.2,61.6,183.4,60.3z"></path>
</g>
</svg>
