<?xml version="1.0" encoding="UTF-8"?>
<!-- Generator: Adobe Illustrator 28.1.0, SVG Export Plug-In . SVG Version: 6.00 Build 0)  -->
<svg xmlns="http://www.w3.org/2000/svg" xmlns:xlink="http://www.w3.org/1999/xlink" version="1.1" id="Layer_2_00000078753288204207100810000010728593704340878479_" x="0px" y="0px" viewBox="0 0 198.8 99.3" style="enable-background:new 0 0 198.8 99.3;" xml:space="preserve" height="100">
<style type="text/css">
	.st0{fill:url(#SVGID_1_);}
	.st1{fill:url(#SVGID_00000165955946671717060480000005210362348493126284_);}
	.st2{fill:url(#SVGID_00000156560396214964578400000001001219649776284045_);}
	.st3{fill:url(#SVGID_00000038388666482160132130000005406662639504180096_);}
	.st4{fill:url(#SVGID_00000183933600771387041100000015023952933480942265_);}
	.st5{fill:url(#SVGID_00000118383381452006654720000004160439614914108821_);}
	.st6{fill:url(#SVGID_00000000919914380627422660000007073628674034962304_);}
	.st7{fill:url(#SVGID_00000034787770115216501550000000982974850699480248_);}
	.st8{fill:url(#SVGID_00000057118213953331818840000018304223118103241122_);}
	.st9{fill:url(#SVGID_00000006673840769068756010000007148968611531849917_);}
	.st10{fill:url(#SVGID_00000145755307843133128460000017426652539457183625_);}
	.st11{fill:url(#SVGID_00000071527626776638520340000018109909884082885022_);}
</style>
<g id="Layer_3">
	
		<linearGradient id="SVGID_1_" gradientUnits="userSpaceOnUse" x1="-599.129" y1="10.8495" x2="448.9669" y2="10.8495" gradientTransform="matrix(1 0 0 -1 0 101.312)">
		<stop offset="0.246" style="stop-color:#3C84E1"></stop>
		<stop offset="1" style="stop-color:#32B9A9"></stop>
	</linearGradient>
	<path class="st0" d="M55.5,97.3V83.7c0-0.1,0.1-0.2,0.2-0.2h1c0.1,0,0.2,0.1,0.2,0.2v12.5c0,0.1,0,0.1,0.1,0.1h7.1   c0.1,0,0.2,0.1,0.2,0.2v0.8c0,0.1-0.1,0.2-0.2,0.2h-8.4C55.6,97.5,55.5,97.4,55.5,97.3L55.5,97.3z"></path>
	
		<linearGradient id="SVGID_00000005975979001397414060000014685603824021136569_" gradientUnits="userSpaceOnUse" x1="-599.129" y1="8.9075" x2="448.9669" y2="8.9075" gradientTransform="matrix(1 0 0 -1 0 101.312)">
		<stop offset="0.246" style="stop-color:#3C84E1"></stop>
		<stop offset="1" style="stop-color:#32B9A9"></stop>
	</linearGradient>
	<path style="fill:url(#SVGID_00000005975979001397414060000014685603824021136569_);" d="M68,96.9c-0.7-0.5-1.2-1.2-1.4-2   c-0.2-0.6-0.3-1.4-0.3-2.5s0.1-1.8,0.3-2.4c0.3-0.9,0.7-1.5,1.4-2c0.7-0.5,1.5-0.7,2.5-0.7c0.9,0,1.8,0.2,2.4,0.7   c0.7,0.5,1.2,1.2,1.4,2c0.2,0.6,0.3,1.4,0.3,2.5c0,1.1-0.1,1.9-0.3,2.5c-0.3,0.9-0.7,1.5-1.4,2c-0.7,0.5-1.5,0.7-2.5,0.7   C69.5,97.6,68.7,97.4,68,96.9L68,96.9z M72.1,95.9c0.5-0.4,0.8-0.8,0.9-1.4c0.1-0.5,0.2-1.2,0.2-2c0-0.9-0.1-1.6-0.2-2   c-0.2-0.6-0.5-1.1-0.9-1.4s-1-0.5-1.7-0.5s-1.2,0.2-1.7,0.5c-0.5,0.4-0.8,0.8-0.9,1.4c-0.1,0.5-0.2,1.1-0.2,2s0.1,1.6,0.2,2   c0.1,0.6,0.4,1.1,0.9,1.4s1,0.5,1.7,0.5C71.1,96.4,71.7,96.2,72.1,95.9z"></path>
	
		<linearGradient id="SVGID_00000096057315548219314950000005854286107176069039_" gradientUnits="userSpaceOnUse" x1="-599.129" y1="8.9085" x2="448.9669" y2="8.9085" gradientTransform="matrix(1 0 0 -1 0 101.312)">
		<stop offset="0.246" style="stop-color:#3C84E1"></stop>
		<stop offset="1" style="stop-color:#32B9A9"></stop>
	</linearGradient>
	<path style="fill:url(#SVGID_00000096057315548219314950000005854286107176069039_);" d="M79,97.3l-2.8-9.7l0-0.1   c0-0.1,0.1-0.2,0.2-0.2h1c0.1,0,0.2,0.1,0.2,0.2l2.1,7.9c0,0,0,0,0,0c0,0,0,0,0.1,0l2.2-7.9c0-0.1,0.1-0.2,0.2-0.2h1   c0.1,0,0.2,0.1,0.2,0.2l2.2,7.9c0,0,0,0,0.1,0s0,0,0.1,0l2.2-7.9c0-0.1,0.1-0.2,0.2-0.2l1,0c0.1,0,0.1,0,0.2,0.1s0,0.1,0,0.2   l-2.9,9.7c0,0.1-0.1,0.2-0.2,0.2h-1.1c-0.1,0-0.2-0.1-0.2-0.2l-2.2-7.5c0,0,0,0,0,0c0,0,0,0-0.1,0l-2.1,7.5c0,0.1-0.1,0.2-0.2,0.2   h-1.1C79.1,97.5,79,97.4,79,97.3L79,97.3z"></path>
	
		<linearGradient id="SVGID_00000106862199828304579380000006299331805539719605_" gradientUnits="userSpaceOnUse" x1="-599.129" y1="8.897" x2="448.9669" y2="8.897" gradientTransform="matrix(1 0 0 -1 0 101.312)">
		<stop offset="0.246" style="stop-color:#3C84E1"></stop>
		<stop offset="1" style="stop-color:#32B9A9"></stop>
	</linearGradient>
	<path style="fill:url(#SVGID_00000106862199828304579380000006299331805539719605_);" d="M99,92.1v0.6c0,0.1-0.1,0.2-0.2,0.2h-6.5   c-0.1,0-0.1,0-0.1,0.1c0,0.7,0.1,1.2,0.1,1.4c0.1,0.6,0.5,1.1,0.9,1.4s1.1,0.5,1.8,0.5c0.6,0,1.1-0.1,1.5-0.4   c0.4-0.3,0.8-0.6,1-1.1c0.1-0.1,0.2-0.1,0.3-0.1l0.8,0.5c0.1,0.1,0.1,0.2,0.1,0.3c-0.3,0.6-0.8,1.1-1.5,1.5   c-0.7,0.4-1.4,0.6-2.3,0.6c-0.9,0-1.7-0.2-2.4-0.7c-0.6-0.4-1.1-1.1-1.4-1.8c-0.2-0.6-0.4-1.6-0.4-2.8c0-0.6,0-1,0-1.4   c0-0.4,0.1-0.7,0.1-0.9c0.2-0.9,0.7-1.6,1.4-2.1c0.7-0.5,1.5-0.8,2.5-0.8c1.2,0,2.1,0.3,2.8,0.9s1.1,1.5,1.2,2.6   C99,91.1,99,91.5,99,92.1L99,92.1z M93.3,88.9c-0.4,0.3-0.7,0.8-0.9,1.4c-0.1,0.3-0.1,0.7-0.2,1.4c0,0.1,0,0.1,0.1,0.1h5.2   c0.1,0,0.1,0,0.1-0.1c0-0.6-0.1-1-0.1-1.3c-0.1-0.6-0.4-1.1-0.9-1.4c-0.4-0.4-1-0.5-1.7-0.5C94.3,88.4,93.7,88.6,93.3,88.9z"></path>
	
		<linearGradient id="SVGID_00000139261935974696573340000006072138398316725674_" gradientUnits="userSpaceOnUse" x1="-599.129" y1="8.9575" x2="448.9669" y2="8.9575" gradientTransform="matrix(1 0 0 -1 0 101.312)">
		<stop offset="0.246" style="stop-color:#3C84E1"></stop>
		<stop offset="1" style="stop-color:#32B9A9"></stop>
	</linearGradient>
	<path style="fill:url(#SVGID_00000139261935974696573340000006072138398316725674_);" d="M107.1,87.5c0.1,0.1,0.1,0.1,0.1,0.3   l-0.2,1c0,0.1-0.1,0.2-0.3,0.1c-0.2-0.1-0.5-0.1-0.8-0.1l-0.3,0c-0.7,0-1.3,0.3-1.7,0.8s-0.7,1.1-0.7,1.9v5.9   c0,0.1-0.1,0.2-0.2,0.2h-1c-0.1,0-0.2-0.1-0.2-0.2v-9.7c0-0.1,0.1-0.2,0.2-0.2h1c0.1,0,0.2,0.1,0.2,0.2v1.2c0,0,0,0.1,0,0.1   c0,0,0,0,0.1,0c0.3-0.5,0.6-0.9,1.1-1.1s0.9-0.4,1.5-0.4C106.4,87.2,106.8,87.3,107.1,87.5L107.1,87.5z"></path>
	
		<linearGradient id="SVGID_00000176736274432366442250000002712944266362666933_" gradientUnits="userSpaceOnUse" x1="-599.129" y1="10.849" x2="448.9669" y2="10.849" gradientTransform="matrix(1 0 0 -1 0 101.312)">
		<stop offset="0.246" style="stop-color:#3C84E1"></stop>
		<stop offset="1" style="stop-color:#32B9A9"></stop>
	</linearGradient>
	<path style="fill:url(#SVGID_00000176736274432366442250000002712944266362666933_);" d="M121.5,97.3l-0.8-2.5c0,0,0-0.1-0.1-0.1   h-6c0,0-0.1,0-0.1,0.1l-0.8,2.5c0,0.1-0.1,0.2-0.2,0.2h-1.1c-0.1,0-0.2-0.1-0.2-0.2l4.4-13.6c0-0.1,0.1-0.2,0.2-0.2h1.4   c0.1,0,0.2,0.1,0.2,0.2l4.4,13.6l0,0.1c0,0.1-0.1,0.1-0.2,0.1h-1.1C121.6,97.5,121.5,97.4,121.5,97.3L121.5,97.3z M114.9,93.5   C115,93.6,115,93.6,114.9,93.5l5.2,0c0,0,0.1,0,0.1,0c0,0,0,0,0-0.1l-2.6-8.2c0,0,0,0-0.1,0s0,0-0.1,0L114.9,93.5   C114.9,93.5,114.9,93.5,114.9,93.5L114.9,93.5z"></path>
	
		<linearGradient id="SVGID_00000049902552593071607590000013496817994327349933_" gradientUnits="userSpaceOnUse" x1="-599.129" y1="10.848" x2="448.9669" y2="10.848" gradientTransform="matrix(1 0 0 -1 0 101.312)">
		<stop offset="0.246" style="stop-color:#3C84E1"></stop>
		<stop offset="1" style="stop-color:#32B9A9"></stop>
	</linearGradient>
	<path style="fill:url(#SVGID_00000049902552593071607590000013496817994327349933_);" d="M133.7,83.5h1c0.1,0,0.2,0.1,0.2,0.2v13.6   c0,0.1-0.1,0.2-0.2,0.2h-1c-0.1,0-0.2-0.1-0.2-0.2v-6.1c0-0.1,0-0.1-0.1-0.1h-6.4c-0.1,0-0.1,0-0.1,0.1v6.1c0,0.1-0.1,0.2-0.2,0.2   h-1c-0.1,0-0.2-0.1-0.2-0.2V83.7c0-0.1,0.1-0.2,0.2-0.2h1c0.1,0,0.2,0.1,0.2,0.2v6.1c0,0.1,0,0.1,0.1,0.1h6.4c0.1,0,0.1,0,0.1-0.1   v-6.1C133.5,83.5,133.6,83.5,133.7,83.5z"></path>
	
		<linearGradient id="SVGID_00000021841084899004072310000010791355972191878588_" gradientUnits="userSpaceOnUse" x1="-599.129" y1="10.8485" x2="448.9669" y2="10.8485" gradientTransform="matrix(1 0 0 -1 0 101.312)">
		<stop offset="0.246" style="stop-color:#3C84E1"></stop>
		<stop offset="1" style="stop-color:#32B9A9"></stop>
	</linearGradient>
	<path style="fill:url(#SVGID_00000021841084899004072310000010791355972191878588_);" d="M147.3,83.7v0.9c0,0.1-0.1,0.2-0.2,0.2   h-3.9c-0.1,0-0.1,0-0.1,0.1v12.5c0,0.1-0.1,0.2-0.2,0.2h-1c-0.1,0-0.2-0.1-0.2-0.2V84.8c0-0.1,0-0.1-0.1-0.1h-3.8   c-0.1,0-0.2-0.1-0.2-0.2v-0.9c0-0.1,0.1-0.2,0.2-0.2h9.3C147.2,83.5,147.3,83.5,147.3,83.7z"></path>
	
		<linearGradient id="SVGID_00000094598630603016485870000000863162110091613612_" gradientUnits="userSpaceOnUse" x1="-1740.3495" y1="2989.313" x2="-1740.3495" y2="3037.7061" gradientTransform="matrix(-1 0 0 1 -1706.699 -2972.916)">
		<stop offset="0" style="stop-color:#37A1C1;stop-opacity:0"></stop>
		<stop offset="0.72" style="stop-color:#37A1C1"></stop>
	</linearGradient>
	<path style="fill:url(#SVGID_00000094598630603016485870000000863162110091613612_);" d="M22.5,53.9l10.6,10.6   c0.1,0.1,0.2,0.1,0.3,0.2c0.2,0.1,0.4,0.1,0.6,0c0.1,0,0.2-0.1,0.3-0.2l10.6-10.6c0.3-0.3,0.3-0.8,0-1.1c-0.3-0.3-0.8-0.3-1.1,0   l-9.3,9.3V17.2c0-0.4-0.4-0.8-0.8-0.8c-0.4,0-0.8,0.4-0.8,0.8v44.9l-9.3-9.3c-0.2-0.2-0.4-0.2-0.6-0.2c-0.2,0-0.4,0.1-0.6,0.2   C22.2,53.1,22.2,53.6,22.5,53.9L22.5,53.9z"></path>
	
		<linearGradient id="SVGID_00000104680510283793443900000017195182148927014289_" gradientUnits="userSpaceOnUse" x1="-599.129" y1="68.156" x2="448.9669" y2="68.156" gradientTransform="matrix(1 0 0 -1 0 101.312)">
		<stop offset="0.246" style="stop-color:#3C84E1"></stop>
		<stop offset="1" style="stop-color:#32B9A9"></stop>
	</linearGradient>
	<path style="fill:url(#SVGID_00000104680510283793443900000017195182148927014289_);" d="M68.7,1.7h8.6c0.3,0,0.6,0.1,0.8,0.3   c0.2,0.2,0.3,0.5,0.3,0.8v60.8c0,0.3-0.1,0.6-0.3,0.8c-0.2,0.2-0.5,0.3-0.8,0.3h-8.3c-0.3,0-0.6-0.1-0.8-0.3   c-0.2-0.2-0.3-0.5-0.3-0.8V12.5c0-0.1-0.1-0.2-0.2-0.3c-0.1-0.1-0.2-0.1-0.4,0l-9,2.8C58.3,14.9,58.2,15,58,15   c-0.2,0-0.4-0.1-0.6-0.3c-0.2-0.2-0.2-0.4-0.2-0.7L56.9,8c0-0.6,0.2-1,0.7-1.3l9.7-4.9C67.8,1.7,68.3,1.7,68.7,1.7z"></path>
	
		<linearGradient id="SVGID_00000160877223536137512280000010120166053987801518_" gradientUnits="userSpaceOnUse" x1="-599.129" y1="67.841" x2="448.9669" y2="67.841" gradientTransform="matrix(1 0 0 -1 0 101.312)">
		<stop offset="0.246" style="stop-color:#3C84E1"></stop>
		<stop offset="1" style="stop-color:#32B9A9"></stop>
	</linearGradient>
	<path style="fill:url(#SVGID_00000160877223536137512280000010120166053987801518_);" d="M128.9,44.8c0,2.8-0.4,5.5-1.2,8   c-1.3,3.8-3.6,6.9-6.9,9.1c-3.4,2.2-7.3,3.4-11.8,3.4c-4.4,0-8.3-1.1-11.6-3.3c-3.3-2.2-5.6-5.1-6.9-8.9c-0.5-1.3-0.9-2.8-1.2-4.5   v-0.2c0-0.7,0.4-1,1.1-1h8.6c0.6,0,1,0.3,1.2,1c0.1,0.4,0.2,0.9,0.4,1.6c0.7,2,1.7,3.5,3.2,4.6c1.4,1.1,3.2,1.6,5.2,1.6   c2.1,0,3.9-0.6,5.4-1.8c1.5-1.2,2.6-2.8,3.2-4.8c0.5-1.4,0.8-3.1,0.8-5c0-1.7-0.2-3.4-0.7-5.1c-0.4-2-1.4-3.5-2.9-4.5   c-1.5-1-3.3-1.6-5.5-1.6c-2,0-3.9,0.5-5.5,1.4c-1.7,0.9-2.7,2.1-3.2,3.6c-0.2,0.6-0.7,0.9-1.3,0.9h-8.7c-0.3,0-0.6-0.1-0.8-0.3   c-0.2-0.2-0.3-0.5-0.3-0.8V2.7c0-0.3,0.1-0.6,0.3-0.8c0.2-0.2,0.5-0.3,0.8-0.3h35c0.3,0,0.6,0.1,0.8,0.3c0.2,0.2,0.3,0.5,0.3,0.8   v6.8c0,0.3-0.1,0.6-0.3,0.8c-0.2,0.2-0.5,0.3-0.8,0.3h-25.2c-0.3,0-0.4,0.1-0.4,0.4l-0.1,16.2c0,0.2,0.1,0.4,0.2,0.4   c0.1,0,0.2,0,0.4-0.1c2.8-2.1,6.2-3.1,10.2-3.1c4.2,0,7.8,1.1,10.9,3.2c3.1,2.1,5.2,5.1,6.3,8.8C128.5,39.1,128.9,41.9,128.9,44.8   L128.9,44.8z"></path>
	
		<linearGradient id="SVGID_00000164502250786894423060000013357107116078695604_" gradientUnits="userSpaceOnUse" x1="-599.129" y1="57.656" x2="448.9669" y2="57.656" gradientTransform="matrix(1 0 0 -1 0 101.312)">
		<stop offset="0.246" style="stop-color:#3C84E1"></stop>
		<stop offset="1" style="stop-color:#32B9A9"></stop>
	</linearGradient>
	<path style="fill:url(#SVGID_00000164502250786894423060000013357107116078695604_);" d="M143.2,37c-1.2-0.7-2.2-1.7-2.9-2.9   c-0.7-1.2-1.1-2.6-1.1-4s0.4-2.8,1.1-4s1.7-2.2,2.9-2.9c1.2-0.7,2.6-1.1,4.1-1.1c1.4,0,2.8,0.4,4,1.1c1.2,0.7,2.2,1.7,2.9,2.9   c0.7,1.2,1.1,2.5,1.1,4s-0.4,2.8-1.1,4c-0.7,1.2-1.7,2.2-2.9,2.9c-1.2,0.7-2.6,1.1-4,1.1C145.8,38.1,144.5,37.7,143.2,37z    M151.9,34.7c1.3-1.3,1.9-2.8,1.9-4.6s-0.6-3.3-1.9-4.6s-2.8-1.9-4.6-1.9c-1.8,0-3.4,0.6-4.6,1.9c-1.3,1.3-1.9,2.8-1.9,4.6   c0,1.8,0.6,3.4,1.9,4.6c1.3,1.3,2.8,1.9,4.6,1.9C149.1,36.6,150.6,35.9,151.9,34.7z M146.1,64.4c-0.1-0.1-0.1-0.3,0-0.5l22.7-40.9   c0.2-0.3,0.4-0.4,0.7-0.4h0.3c0.2,0,0.4,0.1,0.5,0.2c0.1,0.1,0.1,0.3-0.1,0.5l-22.7,40.9c-0.1,0.3-0.4,0.4-0.7,0.4h-0.3   C146.4,64.7,146.2,64.6,146.1,64.4L146.1,64.4z M165.2,64.2c-1.2-0.7-2.2-1.7-2.9-2.9c-0.7-1.2-1.1-2.6-1.1-4s0.4-2.8,1.1-4   c0.7-1.2,1.7-2.2,2.9-2.9c1.2-0.7,2.6-1.1,4.1-1.1c1.4,0,2.8,0.4,4,1.1c1.2,0.7,2.2,1.7,2.9,2.9c0.7,1.2,1.1,2.6,1.1,4   s-0.4,2.8-1.1,4s-1.7,2.2-2.9,2.9c-1.2,0.7-2.6,1.1-4,1.1C167.8,65.3,166.5,64.9,165.2,64.2z M173.8,61.8c1.3-1.3,1.9-2.8,1.9-4.6   s-0.6-3.3-1.9-4.6c-1.3-1.3-2.8-1.9-4.5-1.9c-1.8,0-3.4,0.6-4.6,1.9s-1.9,2.8-1.9,4.6c0,1.8,0.6,3.4,1.9,4.7s2.8,1.9,4.6,1.9   C171.1,63.8,172.6,63.1,173.8,61.8z"></path>
</g>
</svg>
