<?xml version="1.0" encoding="UTF-8"?>
<svg xmlns="http://www.w3.org/2000/svg" id="Layer_2" viewBox="0 0 94.969 51.89" height="70">
  <defs>
    <style>.cls-1{opacity:.762;}.cls-1,.cls-2,.cls-3,.cls-4,.cls-5{fill:#34acb7;stroke-width:0px;}.cls-2{opacity:.05;}.cls-3{opacity:.525;}.cls-4{opacity:.287;}</style>
  </defs>
  <g id="Layer_2-2">
    <path class="cls-2" d="M25.945,2C12.742,2,2,12.742,2,25.945s10.742,23.944,23.945,23.944,23.944-10.741,23.944-23.944S39.148,2,25.945,2ZM25.945,51.89C11.639,51.89,0,40.251,0,25.945S11.639,0,25.945,0s25.944,11.639,25.944,25.945-11.639,25.944-25.944,25.944Z"></path>
    <path class="cls-4" d="M36.715,2c-13.203,0-23.945,10.742-23.945,23.945s10.742,23.944,23.945,23.944,23.944-10.741,23.944-23.944S49.918,2,36.715,2ZM36.715,51.89c-14.307,0-25.945-11.639-25.945-25.944S22.408,0,36.715,0s25.944,11.639,25.944,25.945-11.639,25.944-25.944,25.944Z"></path>
    <path class="cls-3" d="M47.485,2c-13.203,0-23.945,10.742-23.945,23.945s10.742,23.944,23.945,23.944,23.944-10.741,23.944-23.944S60.688,2,47.485,2ZM47.485,51.89c-14.307,0-25.945-11.639-25.945-25.944S33.178,0,47.485,0s25.944,11.639,25.944,25.945-11.639,25.944-25.944,25.944Z"></path>
    <path class="cls-1" d="M58.255,2c-13.203,0-23.945,10.742-23.945,23.945s10.742,23.944,23.945,23.944,23.944-10.741,23.944-23.944S71.458,2,58.255,2ZM58.255,51.89c-14.307,0-25.945-11.639-25.945-25.944S43.948,0,58.255,0s25.944,11.639,25.944,25.945-11.639,25.944-25.944,25.944Z"></path>
    <path class="cls-5" d="M69.024,2c-13.203,0-23.945,10.742-23.945,23.945s10.742,23.944,23.945,23.944,23.944-10.741,23.944-23.944S82.228,2,69.024,2ZM69.024,51.89c-14.307,0-25.945-11.639-25.945-25.944S54.718,0,69.024,0s25.944,11.639,25.944,25.945-11.639,25.944-25.944,25.944Z"></path>
  </g>
</svg>
