<?xml version="1.0" encoding="UTF-8"?>
<svg xmlns="http://www.w3.org/2000/svg" id="Layer_2" viewBox="0 0 65.3 65.313" height="70">
  <defs>
    <style>.cls-1{opacity:.2;}.cls-1,.cls-2,.cls-3,.cls-4,.cls-5{fill:#3991d3;stroke-width:0px;}.cls-2{opacity:.8;}.cls-3{opacity:.4;}.cls-4{opacity:.6;}</style>
  </defs>
  <g id="Layer_2-2">
    <path class="cls-1" d="M34.635,62.309c-.545,0-.991-.438-1-.984-.008-.553.432-1.007.984-1.016.427-.007.855-.023,1.284-.049,7.773-.467,14.9-3.933,20.067-9.759,10.215-11.521,9.693-29.07-1.19-39.953-.408-.408-.832-.809-1.28-1.207-5.825-5.166-13.314-7.759-21.091-7.289-7.775.468-14.902,3.934-20.068,9.76-4.614,5.205-7.216,11.909-7.325,18.879-.009.553-.428,1-1.016.984-.552-.009-.993-.464-.984-1.016.117-7.447,2.897-14.612,7.829-20.174C16.366,4.259,23.981.555,32.29.056c8.309-.492,16.313,2.269,22.539,7.79.479.427.932.853,1.367,1.288,11.629,11.63,12.188,30.383,1.271,42.693-5.521,6.227-13.137,9.931-21.444,10.429-.458.027-.916.046-1.372.053h-.016Z"></path>
    <path class="cls-3" d="M35.618,56.535c-.525,0-.965-.409-.997-.94-.033-.551.387-1.024.938-1.058,6.246-.375,11.971-3.159,16.122-7.84,8.207-9.255,7.788-23.353-.954-32.095-.33-.33-.674-.652-1.031-.971-4.679-4.149-10.69-6.217-16.942-5.855-6.245.376-11.97,3.16-16.121,7.84-3.496,3.943-5.516,8.81-5.843,14.074-.034.551-.516.962-1.06.936-.551-.034-.97-.509-.936-1.061.355-5.713,2.548-10.996,6.343-15.275,4.505-5.08,10.719-8.103,17.497-8.51,6.777-.413,13.31,1.851,18.39,6.356.388.345.76.694,1.117,1.052,9.489,9.489,9.944,24.791,1.036,34.835-4.505,5.081-10.719,8.104-17.498,8.51-.021,0-.041.002-.061.002Z"></path>
    <path class="cls-4" d="M37.122,50.61c-.483,0-.908-.351-.986-.843-.086-.546.285-1.059.831-1.145,4.069-.647,7.673-2.629,10.424-5.73,6.198-6.989,5.882-17.634-.719-24.235-.251-.251-.512-.496-.781-.734-3.534-3.136-8.078-4.699-12.794-4.422-4.716.283-9.04,2.386-12.174,5.92-2.307,2.603-3.784,5.796-4.271,9.236-.077.547-.589.935-1.13.85-.547-.077-.927-.584-.85-1.131.542-3.829,2.187-7.385,4.755-10.281,3.489-3.935,8.301-6.275,13.55-6.59,5.25-.313,10.308,1.432,14.242,4.922.299.266.589.538.867.816,7.348,7.348,7.699,19.197.801,26.976-3.061,3.453-7.075,5.659-11.606,6.379-.053.009-.106.013-.158.013Z"></path>
    <path class="cls-2" d="M37.928,44.551c-.429,0-.826-.278-.957-.71-.16-.528.138-1.087.667-1.247,2.104-.638,3.994-1.851,5.463-3.507,2.118-2.389,3.18-5.46,2.988-8.647s-1.612-6.109-4.001-8.228-5.462-3.184-8.647-2.988c-3.188.191-6.109,1.612-8.228,4.001-1.155,1.303-1.994,2.799-2.495,4.449-.161.529-.716.826-1.248.667-.528-.16-.827-.719-.667-1.247.585-1.929,1.565-3.677,2.913-5.195,2.473-2.789,5.884-4.448,9.604-4.671,3.725-.234,7.306,1.015,10.094,3.488,2.789,2.473,4.448,5.883,4.671,9.604s-1.016,7.306-3.489,10.095c-1.714,1.933-3.92,3.349-6.379,4.094-.097.029-.194.043-.291.043Z"></path>
    <path class="cls-5" d="M22.695,65.313c-.909,0-1.742-.33-2.367-.955-.105-.105-.186-.232-.235-.373l-4.915-13.85-13.85-4.915c-.14-.05-.268-.13-.373-.235-.823-.823-1.135-2.007-.855-3.247.344-1.525,1.486-2.804,2.981-3.336l30.063-10.69h0c1.403-.498,2.803-.232,3.747.711s1.208,2.344.71,3.746l-10.69,30.062c-.532,1.495-1.81,2.638-3.335,2.981-.299.067-.594.101-.882.101ZM21.89,63.07c.428.31.953.257,1.246.191.85-.191,1.592-.858,1.891-1.7l10.69-30.062c.234-.657.144-1.278-.24-1.662-.384-.385-1.005-.474-1.662-.24L3.752,40.287c-.841.299-1.509,1.041-1.7,1.891-.066.293-.119.817.192,1.246l14.052,4.986c.284.101.507.324.608.608l4.986,14.052Z"></path>
  </g>
</svg>
