<?xml version="1.0" encoding="UTF-8"?>
<!-- Generator: Adobe Illustrator 28.1.0, SVG Export Plug-In . SVG Version: 6.00 Build 0)  -->
<svg xmlns="http://www.w3.org/2000/svg" xmlns:xlink="http://www.w3.org/1999/xlink" version="1.1" id="Layer_2_00000036936138746615693780000009321366117886573213_" x="0px" y="0px" viewBox="0 0 123 52.2" style="enable-background:new 0 0 123 52.2;" xml:space="preserve" height="70">
<style type="text/css">
	.st0{opacity:0.3;}
	.st1{fill:#3F6EC5;}
</style>
<g id="Layer_2-2">
	<g class="st0">
		<path class="st1" d="M30.1,41.7h-2v-2h2c0.2,0,0.5,0,0.7,0l0.1,2C30.7,41.7,30.4,41.7,30.1,41.7L30.1,41.7z M26.1,41.7h-2v-2h2    V41.7z M22.1,41.7h-2v-2h2V41.7z M18.1,41.7h-2v-2h2V41.7z M14.1,41.7h-2v-2h2V41.7z M10,41.6c-0.7-0.1-1.4-0.3-2.1-0.5l0.6-1.9    c0.6,0.2,1.2,0.3,1.8,0.4L10,41.6L10,41.6z M33.2,41.3l-0.5-1.9c0.6-0.2,1.2-0.4,1.7-0.6l0.9,1.8C34.6,40.9,33.9,41.1,33.2,41.3z     M5.9,40.2c-0.6-0.4-1.2-0.8-1.8-1.3l1.3-1.5c0.5,0.4,1,0.7,1.5,1L5.9,40.2z M37.1,39.4l-1.2-1.6c0.5-0.4,0.9-0.8,1.3-1.2l1.5,1.4    C38.2,38.5,37.7,39,37.1,39.4L37.1,39.4z M2.6,37.4c-0.5-0.6-0.9-1.2-1.2-1.8l1.8-0.9c0.3,0.5,0.6,1,1,1.5L2.6,37.4L2.6,37.4z     M40,36.2l-1.7-1.1c0.3-0.5,0.6-1.1,0.8-1.6l1.9,0.7C40.7,34.9,40.4,35.6,40,36.2z M0.5,33.6c-0.2-0.7-0.4-1.4-0.4-2.1l2-0.2    c0.1,0.6,0.2,1.2,0.4,1.8C2.4,33,0.5,33.6,0.5,33.6z M41.6,32.1l-2-0.3c0.1-0.5,0.1-1.1,0.1-1.7V30h2v0.1    C41.7,30.8,41.7,31.5,41.6,32.1L41.6,32.1z M2,29.3H0v-2h2V29.3z M41.7,28h-2v-2h2V28z M2,25.3H0v-2h2V25.3z M41.7,24h-2v-2h2V24z     M2,21.3H0v-2h2V21.3z M41.7,20h-2v-2h2V20z M2,17.3H0v-2h2V17.3z M41.7,16h-2v-2h2V16z M2,13.3H0v-2l2,0.1V13.3L2,13.3z M41.7,12    h-2v-0.4c0-0.5,0-1-0.1-1.4l2-0.3c0.1,0.6,0.1,1.2,0.1,1.7V12z M2.2,9.5l-2-0.4C0.4,8.4,0.6,7.7,0.9,7l1.8,0.8    C2.5,8.4,2.3,8.9,2.2,9.5z M39.2,8.4c-0.2-0.6-0.5-1.1-0.8-1.6l1.7-1c0.4,0.6,0.7,1.3,0.9,2L39.2,8.4L39.2,8.4z M3.6,6.2L2,5.1    c0.4-0.6,0.9-1.2,1.4-1.7l1.4,1.4C4.3,5.3,4,5.7,3.6,6.2z M37.4,5.3c-0.4-0.5-0.8-0.9-1.3-1.2l1.2-1.6c0.6,0.4,1.1,1,1.6,1.5    L37.4,5.3L37.4,5.3z M6.2,3.7L5,2c0.6-0.4,1.2-0.8,1.9-1.1l0.8,1.8C7.2,3,6.7,3.3,6.2,3.7L6.2,3.7z M34.6,3    c-0.5-0.3-1.1-0.5-1.7-0.7l0.6-1.9c0.7,0.2,1.4,0.5,2,0.8L34.6,3L34.6,3z M9.4,2.2L9,0.3C9.7,0.1,10.4,0,11.2,0l0.1,2    C10.6,2,10,2.1,9.4,2.2z M31.1,2c-0.3,0-0.6,0-1,0h-0.9V0h0.9c0.4,0,0.8,0,1.2,0.1L31.1,2L31.1,2z M27.2,2h-2V0h2V2z M23.2,2h-2V0    h2V2z M19.2,2h-2V0h2V2z M15.2,2h-2V0h2V2z"></path>
	</g>
	<g class="st0">
		<path class="st1" d="M89.4,41.4h-2v-2h2V41.4z M85.4,41.4h-2v-2h2V41.4z M81.4,41.4h-2v-2h2V41.4z M77.4,41.4h-2v-2h2V41.4z     M73.4,41.4h-2v-2h2V41.4z M69.4,41.4h-2v-2h2V41.4z M91.6,41.3l-0.3-2c0.6-0.1,1.1-0.3,1.7-0.5l0.8,1.8    C93,41,92.3,41.2,91.6,41.3L91.6,41.3z M65.2,41.3c-0.7-0.1-1.5-0.4-2.1-0.7l0.9-1.8c0.5,0.3,1.1,0.4,1.6,0.5L65.2,41.3z     M95.7,39.5l-1.3-1.6c0.5-0.4,0.9-0.8,1.2-1.3l1.6,1.2C96.8,38.5,96.2,39,95.7,39.5L95.7,39.5z M61.2,39.3    c-0.6-0.5-1.1-1.1-1.5-1.7l1.6-1.1c0.3,0.5,0.7,0.9,1.2,1.3L61.2,39.3L61.2,39.3z M98.3,35.9l-1.9-0.8c0.2-0.5,0.4-1.1,0.4-1.7    l2,0.3C98.8,34.5,98.6,35.2,98.3,35.9L98.3,35.9z M58.7,35.6c-0.3-0.7-0.4-1.4-0.5-2.2l2-0.2c0.1,0.6,0.2,1.1,0.4,1.7    C60.6,35,58.7,35.6,58.7,35.6z M96.9,31.8c-0.1-0.6-0.2-1.1-0.4-1.7l1.9-0.8c0.3,0.7,0.5,1.4,0.6,2.2L96.9,31.8L96.9,31.8z     M60.2,31.5l-2-0.3c0.1-0.7,0.3-1.5,0.7-2.2l1.8,0.8C60.5,30.4,60.3,31,60.2,31.5z M95.6,28.4l-1-1.7l1.7-1l1,1.7L95.6,28.4z     M61.7,28.2l-1.7-1l1-1.7l1.7,1L61.7,28.2z M93.6,25l-1-1.7l1.7-1l1,1.7L93.6,25z M63.7,24.7l-1.7-1l1-1.7l1.7,1L63.7,24.7z     M91.6,21.5l-1-1.7l1.7-1l1,1.7C93.3,20.5,91.6,21.5,91.6,21.5z M65.7,21.3l-1.7-1l1-1.7l1.7,1C66.7,19.5,65.7,21.3,65.7,21.3z     M89.6,18.1l-1-1.7l1.7-1l1,1.7L89.6,18.1z M67.7,17.8l-1.7-1l1-1.7l1.7,1L67.7,17.8z M87.6,14.6l-1-1.7l1.7-1l1,1.7L87.6,14.6z     M69.7,14.3l-1.7-1l1-1.7l1.7,1L69.7,14.3z M85.6,11.1l-1-1.7l1.7-1l1,1.7L85.6,11.1z M71.7,10.9l-1.7-1l1-1.7l1.7,1L71.7,10.9z     M73,8.7l-1.6-1.1c0.4-0.6,0.9-1.2,1.5-1.7l1.3,1.5C73.7,7.7,73.3,8.2,73,8.7L73,8.7z M83.6,7.9c-0.4-0.4-0.8-0.8-1.3-1.1l1.1-1.7    C84,5.5,84.6,6,85.1,6.6L83.6,7.9L83.6,7.9z M75.6,6.4l-0.9-1.8c0.7-0.3,1.4-0.6,2.1-0.7l0.4,2C76.7,6,76.1,6.2,75.6,6.4z     M80.7,6.1c-0.6-0.2-1.1-0.3-1.7-0.3l0.1-2c0.8,0,1.5,0.2,2.2,0.4C81.3,4.2,80.7,6.1,80.7,6.1z"></path>
	</g>
	<path class="st1" d="M40.7,52.2H22.1c-6.4,0-11.6-5.2-11.6-11.6V22.1c0-6.4,5.2-11.6,11.6-11.6h18.5c6.4,0,11.6,5.2,11.6,11.6v18.5   C52.3,47,47.1,52.2,40.7,52.2z M22.1,12.5c-5.3,0-9.6,4.3-9.6,9.6v18.5c0,5.3,4.3,9.6,9.6,9.6h18.5c5.3,0,9.6-4.3,9.6-9.6V22.1   c0-5.3-4.3-9.6-9.6-9.6C40.7,12.5,22.1,12.5,22.1,12.5z"></path>
	<path class="st1" d="M100.7,52H77.5c-3.2,0-6-1.6-7.6-4.4c-1.6-2.8-1.6-6.1,0-8.8l11.6-20.1c1.6-2.8,4.4-4.4,7.6-4.4s6,1.6,7.6,4.4   l11.6,20.1c1.6,2.8,1.6,6.1,0,8.8C106.7,50.3,103.9,52,100.7,52z M82.3,19.2l0.9,0.5l-11.6,20c-1.2,2.1-1.2,4.7,0,6.8   s3.4,3.4,5.9,3.4h23.2c2.5,0,4.7-1.3,5.9-3.4c1.2-2.1,1.2-4.7,0-6.8L95,19.7c-1.2-2.1-3.4-3.4-5.9-3.4s-4.7,1.3-5.9,3.4L82.3,19.2z   "></path>
</g>
</svg>
